<?xml version="1.0" encoding="UTF-8" standalone="no"?>
<svg width="36px" height="36px" viewBox="0 0 36 36" version="1.1" xmlns="http://www.w3.org/2000/svg" xmlns:xlink="http://www.w3.org/1999/xlink">
    <!-- Generator: sketchtool 39.1 (31720) - http://www.bohemiancoding.com/sketch -->
    <title>3C6B2364-B004-47DE-B01E-C9461D46FF5D</title>
    <desc>Created with sketchtool.</desc>
    <defs></defs>
    <g id="-" stroke="none" stroke-width="1" fill="none" fill-rule="evenodd">
        <g id="规范" transform="translate(-221.000000, -1348.000000)">
            <g id="直播分享icon" transform="translate(50.000000, 1304.000000)">
                <g id="分享" transform="translate(3.000000, 44.000000)">
                    <g id="登陆">
                        <g id="空间-n" transform="translate(168.000000, 0.000000)">
                            <circle id="Oval-794-Copy-2" fill="#FFC107" cx="18" cy="18" r="18"></circle>
                            <path d="M26.4963537,16.2692123 L23.0774758,19.2284491 L24.2138678,26.6783787 C23.985691,26.9105009 23.9804807,26.9105009 23.751765,26.9105009 L17.8171938,23.1859031 L11.8700459,26.9105009 C11.4145908,26.9105009 11.3675181,26.9105009 11.3675181,26.6783787 L12.1857203,19.2284491 L8.58052807,15.9695637 L7.34819409,15.0759391 L7,15.0759391 L7,15.0375885 L7.34819409,15.0759391 L14.4231099,15.0759391 L15.3347388,13.417871 L17.6125534,8.5 L18.0687272,8.5 L20.5739998,13.417871 L21.4863474,15.0759391 L27.6372373,15.0759391 C27.8652344,15.0759391 27.8652344,14.9405192 27.8652344,15.1730084 L26.4963537,16.2692123 L26.4963537,16.2692123 Z" id="Fill-53" fill="#FFFFFF"></path>
                            <polyline id="Fill-52" fill="#FFC107" points="21.9012768 15.9884397 13.5800326 15.9884397 19.0600403 16.9443801 13.1743017 21.826877 22.1039022 21.826877 16.827 20.66437 21.9012768 15.9884397"></polyline>
                        </g>
                    </g>
                </g>
            </g>
        </g>
    </g>
</svg>