<?xml version="1.0" encoding="UTF-8" standalone="no"?>
<svg width="36px" height="36px" viewBox="0 0 36 36" version="1.1" xmlns="http://www.w3.org/2000/svg" xmlns:xlink="http://www.w3.org/1999/xlink">
    <!-- Generator: sketchtool 39.1 (31720) - http://www.bohemiancoding.com/sketch -->
    <title>7746F831-07E4-4250-A36E-84875FF09BD3</title>
    <desc>Created with sketchtool.</desc>
    <defs></defs>
    <g id="-" stroke="none" stroke-width="1" fill="none" fill-rule="evenodd">
        <g id="规范" transform="translate(-53.000000, -1348.000000)">
            <g id="直播分享icon" transform="translate(50.000000, 1304.000000)">
                <g id="分享" transform="translate(3.000000, 44.000000)">
                    <g id="登陆">
                        <g id="朋友圈-选中">
                            <ellipse id="Oval-794-Copy-3" fill="#05D380" cx="18" cy="18" rx="18" ry="18"></ellipse>
                            <path d="M25.6019268,20.3045442 L19.8955945,20.3045442 C20.0954964,20.1644342 20.2780416,20.0029811 20.4384419,19.8219271 C20.4990409,19.7535418 20.5564978,19.682543 20.6109621,19.6093664 L21.314958,18.9262396 L21.6481778,18.6030429 L25.4445189,14.9192395 C25.7096583,15.5547435 25.8898095,16.2320627 25.9733014,16.9381298 C26.0072668,17.2264805 26.026868,17.5193321 26.026868,17.8166847 C26.026868,18.5125884 25.9293111,19.1858423 25.7512547,19.8270088 C25.7065162,19.9883167 25.656391,20.1474468 25.6019268,20.3045442 L25.6019268,20.3045442 Z M24.2603693,22.6769763 C24.0742331,22.9043465 23.8747801,23.1248927 23.6579702,23.3351302 C23.1508837,23.8271849 22.5914276,24.236335 21.9981558,24.5675173 C21.8489775,24.6508573 21.6977044,24.7289704 21.5446358,24.8027278 L17.5094896,20.8873436 C17.752933,20.9255291 17.9998179,20.9365636 18.2452065,20.9185598 C18.3378257,20.9117358 18.4301457,20.9011368 18.5220168,20.8866177 L19.5176362,20.8866177 L19.9888122,20.8866177 L25.3577352,20.8867629 C25.0819723,21.5180563 24.7158345,22.1206018 24.2603693,22.6769763 L24.2603693,22.6769763 Z M18.9079054,25.5554015 C18.6105961,25.5885052 18.3087981,25.6075253 18.0023616,25.6075253 C17.2851984,25.6075253 16.5915268,25.5128603 15.9306235,25.3400822 C15.7645373,25.2966699 15.6005459,25.2480307 15.4384996,25.1951809 L15.4384996,19.6578605 C15.5828899,19.8519817 15.7492753,20.0291156 15.9358604,20.1847611 C16.0063348,20.2434185 16.0795025,20.2993173 16.1549146,20.3521671 L16.8589106,21.035294 L17.1919807,21.3586358 L20.9884715,25.0424393 C20.3334036,25.2997189 19.6353928,25.4745297 18.9079054,25.5554015 L18.9079054,25.5554015 Z M18.0123866,15.2814927 C19.448658,15.2814927 20.6132065,16.4113744 20.6132065,17.8052146 C20.6132065,19.1990547 19.448658,20.3289364 18.0123866,20.3289364 C16.5759655,20.3289364 15.4114171,19.1990547 15.4114171,17.8052146 C15.4114171,16.4113744 16.5759655,15.2814927 18.0123866,15.2814927 L18.0123866,15.2814927 Z M14.8723103,19.2973495 L14.8723103,19.7544129 L14.8723103,24.9641809 C14.2215816,24.6965927 13.6006288,24.3413086 13.0272574,23.8993451 C12.7929412,23.7187267 12.5656575,23.5251862 12.3489973,23.3149486 C11.8419108,22.822894 11.4202613,22.2798771 11.0789617,21.7043372 C10.9930757,21.5595811 10.9125763,21.4126472 10.8365656,21.2641161 L14.8717118,17.3487319 C14.8323599,17.5849588 14.8208386,17.8243799 14.8393923,18.0624942 C14.8464248,18.1523679 14.8574972,18.2420963 14.8723103,18.331244 L14.8723103,19.2973495 Z M10.0537162,18.6724445 C10.0196012,18.3839486 10,18.0912422 10,17.7937444 C10,17.0978407 10.0975569,16.424732 10.2756133,15.7835656 C10.3203518,15.6222576 10.3704769,15.4631275 10.4249412,15.3058849 L16.1314231,15.3058849 C15.9315212,15.4459949 15.7488264,15.607448 15.5884261,15.7886473 C15.5279767,15.8570325 15.4703702,15.9278861 15.4159059,16.0010627 L14.71191,16.6841896 L14.3788398,17.0075314 L10.582349,20.6913349 C10.3172097,20.0556857 10.1370585,19.3783665 10.0537162,18.6724445 L10.0537162,18.6724445 Z M11.7283437,12.960894 C11.9144799,12.7335238 12.113933,12.5131229 12.3307428,12.3027401 C12.8378294,11.8106855 13.3972854,11.4016805 13.9904076,11.0703531 C14.1397356,10.9870131 14.2910087,10.9088999 14.4440773,10.8351426 L18.4790738,14.7506719 C18.2356304,14.7124865 17.9888951,14.7013067 17.7435065,14.7194557 C17.6508873,14.7262797 17.5585673,14.7368787 17.4666962,14.7512527 L16.4710769,14.7512527 L15.9999008,14.7512527 L10.6309779,14.7512527 C10.9067408,14.119814 11.2728785,13.5172686 11.7283437,12.960894 L11.7283437,12.960894 Z M17.12001,10.0521238 C17.4173193,10.0190201 17.7191173,10 18.0255538,10 C18.7427169,10 19.4363886,10.094665 20.0972919,10.2674431 C20.2635277,10.3108554 20.4273695,10.3594946 20.5894158,10.4123444 L20.5894158,15.9496648 C20.4450255,15.7556887 20.2786401,15.5784097 20.092055,15.4227642 C20.0215806,15.3641068 19.9484129,15.308208 19.8730008,15.2553582 L19.1690048,14.5722313 L18.8359347,14.2490346 L15.0394439,10.565086 C15.6945117,10.3078064 16.3925226,10.1329956 17.12001,10.0521238 L17.12001,10.0521238 Z M21.1493207,16.2730067 L21.1494703,15.8157981 L21.1494703,10.6061753 C21.8000494,10.8736184 22.4210022,11.2289024 22.9945233,11.6708659 C23.2288395,11.8514844 23.4559735,12.0450249 23.6726337,12.2554076 C24.1797203,12.7474622 24.6013697,13.2903339 24.9426693,13.866019 C25.0285553,14.0107751 25.1090548,14.1575639 25.1850654,14.306095 L21.1500689,18.2216243 C21.1894208,17.9853974 21.2007925,17.7459764 21.1822387,17.5077168 C21.1752062,17.4178431 21.1642834,17.3282599 21.1493207,17.2391122 L21.1493207,16.2730067 Z" id="Fill-8" fill="#FFFFFF"></path>
                        </g>
                    </g>
                </g>
            </g>
        </g>
    </g>
</svg>