<?xml version="1.0" encoding="UTF-8" standalone="no"?>
<svg width="18px" height="18px" viewBox="0 0 18 18" version="1.1" xmlns="http://www.w3.org/2000/svg" xmlns:xlink="http://www.w3.org/1999/xlink">
    <!-- Generator: sketchtool 39.1 (31720) - http://www.bohemiancoding.com/sketch -->
    <title>1CA6827A-ED9C-4913-BFFF-C0F39EABB586</title>
    <desc>Created with sketchtool.</desc>
    <defs></defs>
    <g id="-" stroke="none" stroke-width="1" fill="none" fill-rule="evenodd">
        <g id="规范" transform="translate(-477.000000, -1629.000000)">
            <g id="v认证" transform="translate(477.000000, 1629.000000)">
                <g>
                    <ellipse id="Oval-365-Copy" fill="#FFC333" cx="9" cy="9" rx="9" ry="9"></ellipse>
                    <g id="v-copy" transform="translate(4.382855, 5.320139)" fill="#FFFFFF">
                        <path d="M4.57793849,4.59299199 C4.64671047,4.6002664 4.71572123,4.55721125 4.76654143,4.46280296 L7.07203952,0.179896949 C7.11905312,0.0925601368 7.24387469,0.0217596618 7.34339356,0.0217596618 L8.98890362,0.0217596618 C9.09175472,0.0217596618 9.17513201,0.107809416 9.17513201,0.2041151 L9.17513201,1.15088252 C9.17513201,1.25159465 9.09527586,1.33957226 8.99468084,1.35740139 C8.99468084,1.35740139 8.69288073,1.33323796 8.40459975,1.73863299 C8.11631878,2.14402803 4.77868496,8.080058 4.77868496,8.080058 C4.72402051,8.17719176 4.65059613,8.22382084 4.57793849,8.21700081 L4.57793849,4.59299199 Z" id="Combined-Shape"></path>
                        <path d="M0.0153020926,4.59299199 C0.084074072,4.6002664 0.153084836,4.55721125 0.203905037,4.46280296 L2.50940312,0.179896949 C2.55641672,0.0925601368 2.68123829,0.0217596618 2.78075716,0.0217596618 L4.42626723,0.0217596618 C4.52911832,0.0217596618 4.61249561,0.107809416 4.61249561,0.2041151 L4.61249561,1.15088252 C4.61249561,1.25159465 4.53263946,1.33957226 4.43204444,1.35740139 C4.43204444,1.35740139 4.13024433,1.33323796 3.84196335,1.73863299 C3.55368238,2.14402803 0.21604856,8.080058 0.21604856,8.080058 C0.161384109,8.17719176 0.0879597278,8.22382084 0.0153020926,8.21700081 L0.0153020926,4.59299199 Z" id="Combined-Shape-Copy" transform="translate(2.313899, 4.119707) scale(-1, 1) translate(-2.313899, -4.119707) "></path>
                    </g>
                </g>
            </g>
        </g>
    </g>
</svg>