<?xml version="1.0" encoding="UTF-8" standalone="no"?>
<svg width="70px" height="70px" viewBox="0 0 70 70" version="1.1" xmlns="http://www.w3.org/2000/svg" xmlns:xlink="http://www.w3.org/1999/xlink">
    <!-- Generator: sketchtool 39.1 (31720) - http://www.bohemiancoding.com/sketch -->
    <title>67721CD9-33D4-43D6-A277-2AABC1A3CDCD</title>
    <desc>Created with sketchtool.</desc>
    <defs>
        <path d="M30,60 C46.5685425,60 60,46.5685425 60,30 C60,13.4314575 46.5685425,0 30,0 C13.4314575,0 0,13.4314575 0,30 C0,46.5685425 13.4314575,60 30,60 Z" id="path-1"></path>
        <filter x="-50%" y="-50%" width="200%" height="200%" filterUnits="objectBoundingBox" id="filter-2">
            <feMorphology radius="0.5" operator="dilate" in="SourceAlpha" result="shadowSpreadOuter1"></feMorphology>
            <feOffset dx="0" dy="2" in="shadowSpreadOuter1" result="shadowOffsetOuter1"></feOffset>
            <feGaussianBlur stdDeviation="2" in="shadowOffsetOuter1" result="shadowBlurOuter1"></feGaussianBlur>
            <feColorMatrix values="0 0 0 0 0   0 0 0 0 0   0 0 0 0 0  0 0 0 0.100288723 0" type="matrix" in="shadowBlurOuter1" result="shadowMatrixOuter1"></feColorMatrix>
            <feOffset dx="0" dy="1" in="SourceAlpha" result="shadowOffsetOuter2"></feOffset>
            <feGaussianBlur stdDeviation="1" in="shadowOffsetOuter2" result="shadowBlurOuter2"></feGaussianBlur>
            <feColorMatrix values="0 0 0 0 0   0 0 0 0 0   0 0 0 0 0  0 0 0 0.2 0" type="matrix" in="shadowBlurOuter2" result="shadowMatrixOuter2"></feColorMatrix>
            <feMerge>
                <feMergeNode in="shadowMatrixOuter1"></feMergeNode>
                <feMergeNode in="shadowMatrixOuter2"></feMergeNode>
            </feMerge>
        </filter>
        <polygon id="path-3" points="31.9477973 31.7821946 31.9477973 0.0190236657 0 0.0190236657 0 31.7821946 31.9477973 31.7821946"></polygon>
    </defs>
    <g id="-" stroke="none" stroke-width="1" fill="none" fill-rule="evenodd">
        <g id="规范" transform="translate(-57.000000, -2198.000000)">
            <g id="直播icon-copy" transform="translate(57.000000, 2198.000000)">
                <g id="直播" transform="translate(5.000000, 3.000000)">
                    <g id="Oval-10" opacity="0.99">
                        <use fill="black" fill-opacity="1" filter="url(#filter-2)" xlink:href="#path-1"></use>
                        <use fill="#FFFFFF" fill-rule="evenodd" xlink:href="#path-1"></use>
                    </g>
                    <g id="Group-8" transform="translate(14.000000, 14.000000)">
                        <mask id="mask-4" fill="white">
                            <use xlink:href="#path-3"></use>
                        </mask>
                        <g id="Clip-7"></g>
                        <path d="M22.6558989,15.808752 C22.4947745,15.9296167 22.1285043,16.1341568 21.8386243,16.3005066 L12.3885362,21.7253981 C12.0986562,21.891891 11.7374211,22.1048702 11.5515527,22.1832534 C11.3616561,22.2633531 11.231318,22.2647834 11.1009799,22.1899761 C10.9707856,22.1151687 10.9067675,22.002171 10.8815918,21.7986321 C10.8568477,21.5993842 10.8617389,21.1818648 10.8618828,20.8490222 L10.8618828,9.9992392 C10.8617389,9.66639656 10.8568477,9.24887716 10.8815918,9.0496293 C10.9067675,8.84609038 10.9707856,8.73309266 11.1009799,8.65828532 C11.231318,8.58347797 11.3616561,8.58505135 11.5515527,8.66500796 C11.7374211,8.74339119 12.0986562,8.95637042 12.3885362,9.12286326 L21.8386243,14.5477548 C22.1285043,14.7141046 22.4947745,14.9186447 22.6558989,15.0395094 C22.8206198,15.1630917 22.8870836,15.274516 22.8870836,15.4241307 C22.8870836,15.5737454 22.8206198,15.6851697 22.6558989,15.808752 M31.6666353,0.298456999 C31.4570298,0.0900548867 31.2320311,0.0189664517 30.8466274,0.0189664517 L22.1859048,0.0189664517 C21.8005011,0.0189664517 21.5755024,0.0900548867 21.3658969,0.298456999 C21.1561475,0.507002146 21.0846485,0.730709012 21.0846485,1.11389999 L21.0846485,5.25419343 C21.0847924,5.58689303 21.0896837,6.00455547 21.0649396,6.2036603 C21.0397639,6.40734225 20.9758896,6.52019693 20.8455515,6.59500428 C20.7152134,6.66981163 20.5848753,6.66838128 20.3949787,6.58828163 C20.2091102,6.51004144 19.8478752,6.29691917 19.5579952,6.13056937 C19.5579952,6.13056937 10.9256133,1.17697846 10.2263047,0.773905607 C9.35033483,0.269134808 8.58384319,0.0189664517 7.4903554,0.0189664517 L1.10119874,0.0189664517 C0.715795007,0.0189664517 0.490796335,0.0900548867 0.281190795,0.298456999 C0.0714413941,0.507002146 -5.75444178e-05,0.730709012 -5.75444178e-05,1.11389999 L-5.75444178e-05,30.6872611 C-5.75444178e-05,31.0704521 0.0714413941,31.294159 0.281046934,31.5027041 C0.490796335,31.7111062 0.715795007,31.7821946 1.10119874,31.7821946 L9.76062652,31.7821946 C10.1460303,31.7821946 10.3710289,31.7111062 10.5807783,31.5027041 C10.7903839,31.294159 10.8618828,31.0704521 10.8618828,30.6872611 L10.8618828,26.5471107 C10.8617389,26.2142681 10.8568477,25.7966056 10.8815918,25.5975008 C10.9067675,25.3938188 10.9707856,25.2809642 11.1009799,25.2061568 C11.231318,25.1313495 11.3616561,25.1327798 11.5515527,25.2128795 C11.7374211,25.2911197 12.0986562,25.5042419 12.3885362,25.6707348 C12.3885362,25.6707348 21.0209181,30.6241826 21.7202266,31.0272555 C22.5961965,31.5320263 23.3626882,31.7821946 24.456176,31.7821946 L30.8466274,31.7821946 C31.2320311,31.7821946 31.4570298,31.7111062 31.6666353,31.5027041 C31.8763847,31.294159 31.9478836,31.0704521 31.9478836,30.6872611 L31.9478836,1.11389999 C31.9478836,0.730709012 31.8763847,0.507002146 31.6666353,0.298456999" id="Fill-6" fill="#05D380" mask="url(#mask-4)"></path>
                    </g>
                </g>
            </g>
        </g>
    </g>
</svg>