<?xml version="1.0" encoding="UTF-8" standalone="no"?>
<svg width="36px" height="36px" viewBox="0 0 36 36" version="1.1" xmlns="http://www.w3.org/2000/svg" xmlns:xlink="http://www.w3.org/1999/xlink">
    <!-- Generator: sketchtool 39.1 (31720) - http://www.bohemiancoding.com/sketch -->
    <title>116FA32F-DB7A-4D99-B564-8B4E6C518EF2</title>
    <desc>Created with sketchtool.</desc>
    <defs></defs>
    <g id="-" stroke="none" stroke-width="1" fill="none" fill-rule="evenodd">
        <g id="规范" transform="translate(-283.000000, -1595.000000)" stroke="#333333">
            <g id="贡献榜" transform="translate(283.000000, 1595.000000)">
                <g id="排行-copy" transform="translate(8.000000, 9.000000)">
                    <path d="M2.66017471,10.3102924 C2.16572308,9.32293861 2.66513027,8.60971374 3.76495689,8.63323837 C3.76495689,8.63323837 7.21912977,9.35686029 8.68053167,6.49375174 C10.1419336,3.63064319 11.3531244,5.67511761 11.9092213,6.49375173 C13.7943907,9.26892304 16.62422,8.60059765 16.62422,8.60059765 C17.7243734,8.55748218 18.2174731,9.31878214 17.72094,10.3102924 L15.1906531,15.3629372 C14.6962015,16.3502911 13.4011675,17.1506995 12.2870693,17.1506995 L8.09404536,17.1506995 C6.98489195,17.1506995 5.68699471,16.3544475 5.19046159,15.3629372 L2.66017471,10.3102924 Z" id="Rectangle-320" stroke-linecap="round" stroke-linejoin="round"></path>
                    <path d="M19.3969558,6.67877728 C20.1555045,6.28368093 20.4434682,5.36101627 20.0401407,4.61794809 C19.6368132,3.87487992 18.6949263,3.59279302 17.9363776,3.98788938 C17.1778288,4.38298574 16.8898651,5.3056504 17.2931926,6.04871857" id="Oval-594-Copy-2" stroke-linecap="round" stroke-linejoin="round"></path>
                    <path d="M1.37347403,6.45389219 C0.61492527,6.05879583 0.326961566,5.13613117 0.730289098,4.393063 C1.13361663,3.64999482 2.07550347,3.36790793 2.83405223,3.76300429 C3.59260099,4.15810064 3.8805647,5.0807653 3.47723716,5.82383348" id="Oval-594-Copy-3" stroke-linecap="round" stroke-linejoin="round"></path>
                    <circle id="Oval-594-Copy-4" cx="10.0555556" cy="1.5" r="1.5"></circle>
                </g>
            </g>
        </g>
    </g>
</svg>