<?xml version="1.0" encoding="UTF-8" standalone="no"?>
<svg width="36px" height="36px" viewBox="0 0 36 36" version="1.1" xmlns="http://www.w3.org/2000/svg" xmlns:xlink="http://www.w3.org/1999/xlink">
    <!-- Generator: sketchtool 39.1 (31720) - http://www.bohemiancoding.com/sketch -->
    <title>E2D6159B-0293-4DD2-AC19-CCF0FD43110C</title>
    <desc>Created with sketchtool.</desc>
    <defs></defs>
    <g id="-" stroke="none" stroke-width="1" fill="none" fill-rule="evenodd">
        <g id="规范" transform="translate(-280.000000, -1349.000000)">
            <g id="直播分享icon" transform="translate(50.000000, 1304.000000)">
                <g id="分享" transform="translate(3.000000, 44.000000)">
                    <g id="登陆">
                        <g id="新浪微博" transform="translate(227.000000, 1.000000)">
                            <circle id="Oval-794-Copy-3" fill="#FC6A6E" cx="18" cy="18" r="18"></circle>
                            <g id="Group-19" transform="translate(8.000000, 9.000000)">
                                <path d="M16.8984766,12.4970214 C15.531894,15.4627307 11.0251848,16.9060065 7.68621323,16.6385954 C4.51214554,16.3837007 0.431272314,15.3067832 0.00974102488,11.3832313 C0.00974102488,11.3832313 -0.213110945,9.60607217 1.47301421,7.30660722 C1.47301421,7.30660722 3.89855757,3.84565453 6.72427419,2.85821235 C9.55181204,1.87499869 9.88112301,3.53900282 9.88112301,4.52170906 C9.73112013,5.35590996 9.44998889,5.84590995 10.5115987,5.5089821 C10.5115987,5.5089821 13.2906257,4.19222339 14.4343563,5.36047675 C15.3568906,6.30411154 14.5866771,7.60057339 14.5866771,7.60057339 C14.5866771,7.60057339 14.2037227,8.03391132 14.9913207,8.19053541 C15.7814021,8.35121888 18.2653903,9.52674528 16.8984766,12.4970214 L16.8984766,12.4970214 Z M14.1580265,4.30334869 C13.8552061,4.30334869 13.6128173,4.05352819 13.6128173,3.74687648 C13.6128173,3.4353197 13.8552061,3.18533006 14.1580265,3.18533006 C14.1580265,3.18533006 17.5647146,2.54141222 17.1579187,6.28195413 C17.1579187,6.30411154 17.1552696,6.32136387 17.1507993,6.34098416 C17.1118913,6.60568903 16.8844035,6.80882676 16.615193,6.80882676 C16.3118759,6.80882676 16.065348,6.56069766 16.065348,6.25150885 C16.065348,6.25150885 16.6054246,3.75211984 14.1580265,4.30334869 L14.1580265,4.30334869 Z M19.1493477,7.78764277 C18.7110942,7.78764277 18.3571139,7.56184021 18.3571139,7.11412534 C18.3571139,6.72527136 18.5144017,6.39984505 18.5144017,6.39984505 C18.5607602,6.23577878 18.9316283,5.25527136 18.2698606,3.7377429 C17.058579,1.658668 14.6186314,1.64547504 14.3302152,1.76454995 C14.03915,1.88024204 13.6103338,1.94874394 13.6103338,1.94874394 C13.1692657,1.94874394 12.8157821,1.58898212 12.8157821,1.14346607 C12.8157821,0.770173014 13.0604888,0.460307638 13.3944356,0.363559278 C13.4384762,0.354256551 13.4628144,0.350197179 13.4896362,0.347829212 C13.82855,0.280680438 15.039666,-0.192912932 16.2179999,0.0885368424 C18.3259875,0.591053236 21.2192551,2.87089789 19.9174088,6.91200246 C19.9129387,7.5 19.5149176,7.78764277 19.1493477,7.78764277 Z" id="Fill-5" fill="#FFFFFF"></path>
                                <path d="M6.86147713,7.64541623 C3.489702,7.79605088 0.764427959,9.55591651 0.764427959,11.7509489 C0.764427959,13.9433559 3.489702,15.591148 6.86147713,15.438052 C10.2356099,15.288566 12.9664413,13.2302206 12.9664413,11.0381418 C12.9664413,8.84770392 10.2356099,7.49346886 6.86147713,7.64541623 L6.86147713,7.64541623 Z M9.74760783,12.7409762 C8.7152943,14.0399129 6.67205449,14.6737927 4.6877559,13.6272265 C3.74435942,13.1277364 3.77820853,12.1481189 3.77820853,12.1481189 C3.77820853,12.1481189 3.38667036,9.05190403 6.77764349,8.66612836 C10.1738371,8.28100905 10.7802582,11.4417113 9.74760783,12.7409762 L9.74760783,12.7409762 Z" id="Fill-6" fill="#FB6A6E"></path>
                                <path d="M6.08723471,10.0088628 C5.45380085,10.0870741 5,10.7394312 5,11.3635287 C5,11.9884224 5.5099151,12.4206736 6.144023,12.3329099 C6.77560324,12.2479323 7.28787749,11.6713983 7.28787749,11.0482958 C7.28787749,10.4222081 6.81469785,9.92706944 6.08723471,10.0088628" id="Fill-3" fill="#FB6A6E"></path>
                                <path d="M7.1788425,10.0988138 C6.99143989,10.231904 6.95323301,10.4872432 7.05521489,10.6458674 C7.15283857,10.8077724 7.38033661,10.8267445 7.56526957,10.6913719 C7.7459896,10.5515773 7.81630189,10.3073646 7.71824239,10.144461 C7.62047344,9.98583691 7.39573559,9.93961909 7.1788425,10.0988138" id="Fill-4" fill="#FFFFFF"></path>
                            </g>
                        </g>
                    </g>
                </g>
            </g>
        </g>
    </g>
</svg>