
<svg viewBox="0 0 300 300" xmlns="http://www.w3.org/2000/svg"><title>912427E0-4C6A-494A-90D4-DB79A13481E1</title><defs><path d="M2.317 27.39c-.914.61-1.655.207-1.655-.897V2c0-1.106.746-1.504 1.655-.896l18 12.037c.914.612.908 1.606 0 2.213l-18 12.037z" id="a"/></defs><g fill="none" fill-rule="evenodd"><path fill="#F8F8F8" d="M0 0h300v300H0z"/><path d="M170.875 162.985v4.19c0 3.755-3.044 6.8-6.77 6.8h-47.013c-3.74 0-6.77-3.04-6.77-6.8v-33.86c0-3.755 3.044-6.8 6.77-6.8h47.013c3.74 0 6.77 3.044 6.77 6.79v8.506" stroke="#D9D9D9" stroke-width="2" stroke-linecap="round" stroke-linejoin="round"/><path d="M171.197 142.336l14.325-11.55c2.238-1.113 4.052-.003 4.052 2.506v33.905c0 2.497-1.81 3.62-4.04 2.514l-6.446-4.775" stroke="#D9D9D9" stroke-width="2" stroke-linecap="round"/><path d="M135.65 163.39c-.914.61-1.654.207-1.654-.897V138c0-1.106.746-1.504 1.654-.896l18 12.037c.914.612.91 1.606 0 2.213l-18 12.037z" stroke="#D9D9D9" stroke-width="2" opacity=".496"/><path d="M135.65 163.39c-.914.61-1.654.207-1.654-.897V138c0-1.106.746-1.504 1.654-.896l18 12.037c.914.612.91 1.606 0 2.213l-18 12.037z" stroke="#D9D9D9" stroke-width="2"/></g></svg>