<?xml version="1.0" encoding="UTF-8" standalone="no"?>
<svg width="18px" height="18px" viewBox="0 0 18 18" version="1.1" xmlns="http://www.w3.org/2000/svg" xmlns:xlink="http://www.w3.org/1999/xlink">
    <!-- Generator: sketchtool 39.1 (31720) - http://www.bohemiancoding.com/sketch -->
    <title>95506F7A-0D06-46F3-898E-BF40EA0343F8</title>
    <desc>Created with sketchtool.</desc>
    <defs></defs>
    <g id="-" stroke="none" stroke-width="1" fill="none" fill-rule="evenodd">
        <g id="规范" transform="translate(-505.000000, -1629.000000)">
            <g id="icon-实名认证" transform="translate(505.000000, 1629.000000)">
                <g>
                    <path d="M9,18 C13.9705627,18 18,13.9705627 18,9 C18,4.02943725 13.9705627,1.77635684e-14 9,1.77635684e-14 C4.02943725,1.77635684e-14 0,4.02943725 0,9 C0,13.9705627 4.02943725,18 9,18 Z" id="Oval-365" fill="#05D380"></path>
                    <rect id="Rectangle-426" fill="#FFFFFF" x="3.3256744" y="4.66334263" width="11.4" height="8.7" rx="2.4"></rect>
                    <g id="身份认证" transform="translate(4.075674, 5.606200)">
                        <g id="个人中心-copy-2" transform="translate(0.003309, 0.418568)" stroke="#05D380" stroke-width="0.5" fill="#05D380">
                            <path d="M2.79304997,3.51025996 C3.68698052,3.51025996 4.41165441,2.75729266 4.41165441,1.82846041 C4.41165441,0.899628159 3.68698052,0.14666085 2.79304997,0.14666085 C1.89911943,0.14666085 1.17444554,0.899628159 1.17444554,1.82846041 C1.17444554,2.75729266 1.89911943,3.51025996 2.79304997,3.51025996 Z" id="Oval-13"></path>
                            <path d="M2.79597742,3.48951799 C1.35932954,3.48951799 0.194696317,4.65415121 0.194696317,6.09079909 L5.3928407,6.09079909 C5.39725852,4.65415121 4.2326253,3.48951799 2.79597742,3.48951799 Z" id="Oval-583" stroke-linecap="round" stroke-linejoin="round"></path>
                        </g>
                        <path d="M6.33508661,0.482142857 L9.25312595,0.482142857" id="Line" stroke="#05D380" stroke-width="0.5" stroke-linecap="round"></path>
                        <path d="M6.33901371,1.89380022 L7.76900638,1.89380022" id="Line-Copy-7" stroke="#05D380" stroke-width="0.5" stroke-linecap="round"></path>
                        <path d="M8.01003988,6.73665737 C9.00415243,6.73665737 9.81003988,5.93076992 9.81003988,4.93665737 C9.81003988,3.94254482 9.00415243,3.13665737 8.01003988,3.13665737 C7.01592733,3.13665737 6.21003988,3.94254482 6.21003988,4.93665737 C6.21003988,5.93076992 7.01592733,6.73665737 8.01003988,6.73665737 Z" id="Oval-75" fill="#05D380"></path>
                        <polyline id="Path-2285-Copy-2" stroke="#FFFFFF" stroke-width="0.5" stroke-linecap="round" stroke-linejoin="round" points="7.0947178 4.93665735 7.70374016 5.54356205 8.92536197 4.32975269"></polyline>
                    </g>
                </g>
            </g>
        </g>
    </g>
</svg>