<?xml version="1.0" encoding="UTF-8" standalone="no"?>
<svg width="60px" height="60px" viewBox="0 0 60 60" version="1.1" xmlns="http://www.w3.org/2000/svg" xmlns:xlink="http://www.w3.org/1999/xlink">
    <!-- Generator: sketchtool 39.1 (31720) - http://www.bohemiancoding.com/sketch -->
    <title>11E2D879-D4F6-4376-9823-1A4309F74A2C</title>
    <desc>Created with sketchtool.</desc>
    <defs></defs>
    <g id="-" stroke="none" stroke-width="1" fill="none" fill-rule="evenodd">
        <g id="规范" transform="translate(-557.000000, -1722.000000)">
            <g id="小视频" transform="translate(557.000000, 1722.000000)">
                <g id="直播icon-copy-3">
                    <g id="直播">
                        <path d="M30,60 C46.5685425,60 60,46.5685425 60,30 C60,13.4314575 46.5685425,0 30,0 C13.4314575,0 0,13.4314575 0,30 C0,46.5685425 13.4314575,60 30,60 Z" id="Oval-10" fill="#24C2FB" opacity="0.99"></path>
                        <g id="icon－摄像-copy-2" transform="translate(13.500000, 20.000000)">
                            <ellipse id="Oval-930" fill="#FFFFFF" cx="8.04545455" cy="6.42857143" rx="2.11363636" ry="2.14285714"></ellipse>
                            <path d="M25.5,14.8039363 L25.5,16.163407 C25.5,18.2822988 23.8826847,20 21.90625,20 L4.09375,20 C2.10897668,20 0.5,18.2775012 0.5,16.1437988 L0.5,3.85620117 C0.5,1.72648007 2.11731534,0 4.09375,0 L21.90625,0 C23.8910233,0 25.5,1.7315536 25.5,3.83333885 L25.5,6.24873409" id="Rectangle-340" stroke="#FFFFFF" stroke-width="1.5" stroke-linecap="round" stroke-linejoin="round"></path>
                            <path d="M25.5,6.51765919 L30.9567966,2.16264096 C31.8090843,1.74327689 32.5,2.16189023 32.5,3.10795686 L32.5,15.8915536 C32.5,16.8330012 31.8102821,17.2568229 30.9615524,16.8392095 L28.5059298,15.0386329" id="Rectangle-15-Copy-2" stroke="#FFFFFF" stroke-width="1.5" stroke-linecap="round"></path>
                        </g>
                    </g>
                </g>
            </g>
        </g>
    </g>
</svg>