<?xml version="1.0" encoding="UTF-8" standalone="no"?>
<svg width="20px" height="20px" viewBox="0 0 20 20" version="1.1" xmlns="http://www.w3.org/2000/svg" xmlns:xlink="http://www.w3.org/1999/xlink">
    <!-- Generator: sketchtool 39.1 (31720) - http://www.bohemiancoding.com/sketch -->
    <title>5E0E0D24-B575-47F0-A7BE-CFFE213D4712</title>
    <desc>Created with sketchtool.</desc>
    <defs></defs>
    <g id="-" stroke="none" stroke-width="1" fill="none" fill-rule="evenodd">
        <g id="规范" transform="translate(-587.000000, -1673.000000)">
            <g id="金币20" transform="translate(587.000000, 1673.000000)">
                <g>
                    <circle id="Oval-3173-Copy-10" fill="#FFEA5F" cx="10" cy="10" r="10"></circle>
                    <circle id="Oval-3173-Copy-11" fill="#FFCA00" cx="10.1282051" cy="10.1282051" r="6.28205128"></circle>
                    <path d="M10,17.9487179 C14.3899557,17.9487179 17.9487179,14.3899557 17.9487179,10 C17.9487179,5.6100443 14.3899557,2.05128205 10,2.05128205 C5.6100443,2.05128205 2.05128205,5.6100443 2.05128205,10 C2.05128205,14.3899557 5.6100443,17.9487179 10,17.9487179 Z" id="Oval-3173-Copy-12" fill="#F9B21B"></path>
                    <g id="Page-1-Copy-4" transform="translate(5.641026, 5.641026)" fill="#FFEB5F">
                        <path d="M8.60445901,0.0763778314 C8.54746004,0.0193788663 8.48631712,-1.17281825e-05 8.38162355,-1.17281825e-05 L6.02832471,-1.17281825e-05 C5.92363114,-1.17281825e-05 5.86248821,0.0193788663 5.80552834,0.0763778314 C5.74852938,0.133337703 5.72913878,0.194480626 5.72913878,0.299213292 L5.72913878,1.43067012 C5.72913878,1.52164172 5.73046798,1.63575693 5.72374382,1.69021479 C5.71690238,1.74584546 5.69954467,1.77669058 5.66412556,1.79713671 C5.62874554,1.81758284 5.59332643,1.81719191 5.54172243,1.7952993 C5.49121306,1.77391491 5.39304818,1.71566494 5.31427389,1.67019869 C5.31427389,1.67019869 2.96871565,0.31645372 2.77868,0.206286996 C2.5406761,0.0683244797 2.33238358,-1.17281825e-05 2.03526963,-1.17281825e-05 L0.29922502,-1.17281825e-05 C0.194492354,-1.17281825e-05 0.133349431,0.0193788663 0.0763895596,0.0763778314 C0.0194296884,0.133337703 0,0.194480626 0,0.299213292 L0,8.38125997 C0,8.48599264 0.0193905945,8.54713556 0.0763895596,8.60409544 C0.133349431,8.6610944 0.194492354,8.68048499 0.29922502,8.68048499 L2.65217201,8.68048499 C2.75686559,8.68048499 2.81800851,8.6610944 2.87496838,8.60409544 C2.93196735,8.54713556 2.95135794,8.48599264 2.95135794,8.38125997 L2.95135794,7.24980315 C2.95135794,7.15883155 2.95002875,7.04471634 2.95671381,6.99029757 C2.96359434,6.9346278 2.98095205,6.90378268 3.01637116,6.88333655 C3.05175118,6.86289042 3.08717029,6.86328136 3.13877429,6.88517397 C3.18928366,6.90659745 3.28744855,6.96480832 3.36622284,7.01027458 C3.36622284,7.01027458 5.71178107,8.36405864 5.90181672,8.47418627 C6.13982063,8.61214879 6.34811314,8.68048499 6.64522709,8.68048499 L8.38162355,8.68048499 C8.48631712,8.68048499 8.54746004,8.6610944 8.60445901,8.60409544 C8.66141888,8.54713556 8.68084857,8.48599264 8.68084857,8.38125997 L8.68084857,0.299213292 C8.68084857,0.194480626 8.66141888,0.133337703 8.60445901,0.0763778314 M6.15604461,4.31513832 C6.1122594,4.3481727 6.01276532,4.40407704 5.93399103,4.44954329 L3.36622284,5.93210279 C3.28744855,5.97756905 3.18928366,6.03581902 3.13877429,6.0572034 C3.08717029,6.07909601 3.05175118,6.07948695 3.01637116,6.05904082 C2.98095205,6.03859469 2.96359434,6.00774957 2.95671381,5.95211889 C2.95002875,5.89766103 2.95135794,5.78354582 2.95135794,5.69257422 L2.95135794,2.72745521 C2.95135794,2.63652271 2.95002875,2.5224075 2.95671381,2.46794964 C2.96359434,2.41231896 2.98095205,2.38147384 3.01637116,2.36102771 C3.05175118,2.34058158 3.08717029,2.34097252 3.13877429,2.36286513 C3.18928366,2.38424951 3.28744855,2.44246039 3.36622284,2.48796574 L5.93399103,3.97052524 C6.01276532,4.01599149 6.1122594,4.07189583 6.15604461,4.10493021 C6.20080717,4.13866828 6.21886858,4.16916155 6.21886858,4.21001472 C6.21886858,4.25090698 6.20080717,4.28136116 6.15604461,4.31513832" id="Fill-1"></path>
                    </g>
                </g>
            </g>
        </g>
    </g>
</svg>