<?xml version="1.0" encoding="UTF-8" standalone="no"?>
<svg width="36px" height="36px" viewBox="0 0 36 36" version="1.1" xmlns="http://www.w3.org/2000/svg" xmlns:xlink="http://www.w3.org/1999/xlink">
    <!-- Generator: sketchtool 39.1 (31720) - http://www.bohemiancoding.com/sketch -->
    <title>42BE53EA-D86F-46F5-82D7-0424BF70E3DB</title>
    <desc>Created with sketchtool.</desc>
    <defs>
        <path d="M13.0236344,4.72735969 C14.4399147,3.66355651 15.0196101,1.99233044 14.3184205,0.994571784 C13.6172308,-0.0031868716 11.9006824,0.0503527913 10.4844022,1.11415597 C9.06812195,2.17795915 8.48842651,3.84918522 9.18961614,4.84694387 C9.89080578,5.84470253 11.6073542,5.79116286 13.0236344,4.72735969 L13.0236344,4.72735969 Z" id="path-1"></path>
        <mask id="mask-2" maskContentUnits="userSpaceOnUse" maskUnits="objectBoundingBox" x="0" y="0" width="5.72423648" height="5.28168447" fill="white">
            <use xlink:href="#path-1"></use>
        </mask>
        <path d="M5.44440216,4.79502886 C4.02812195,3.73122568 3.44842651,2.05999961 4.14961614,1.06224096 C4.85080578,0.0644823013 6.56735424,0.118021964 7.98363445,1.18182514 C9.39991465,2.24562832 9.9796101,3.91685439 9.27842046,4.91461304 C8.57723083,5.9123717 6.86068236,5.85883204 5.44440216,4.79502886 L5.44440216,4.79502886 Z" id="path-3"></path>
        <mask id="mask-4" maskContentUnits="userSpaceOnUse" maskUnits="objectBoundingBox" x="0" y="0" width="5.72423648" height="5.28168447" fill="white">
            <use xlink:href="#path-3"></use>
        </mask>
    </defs>
    <g id="-" stroke="none" stroke-width="1" fill="none" fill-rule="evenodd">
        <g id="规范" transform="translate(-543.000000, -1361.000000)">
            <g id="直播页v2.0icon" transform="translate(496.000000, 1305.000000)">
                <g id="icon－礼物" transform="translate(47.000000, 56.000000)">
                    <ellipse id="Oval-50-Copy-3" fill="#000000" opacity="0.3" cx="18" cy="18" rx="18" ry="18"></ellipse>
                    <g id="礼物-copy-2" transform="translate(9.000000, 9.000000)" stroke="#FFFFFF">
                        <path d="M13.7197266,3.65413534 L15.8405503,3.65413534 C17.0331814,3.65413534 18,4.52626029 18,5.60916746 L18,6.90962954 C18,7.98936396 17.0322418,8.86466165 15.8466584,8.86466165 L2.1533416,8.86466165 C0.964083874,8.86466165 0,7.9925367 0,6.90962954 L0,5.60916746 C0,4.52943303 0.970007038,3.65413534 2.15997214,3.65413534 L2.94503906,3.65413534 L4.82462211,3.65413534" id="Rectangle-37" stroke-linecap="round" stroke-linejoin="round"></path>
                        <path d="M16.56,11.566968 L16.56,14.8152328 C16.56,16.050914 15.5928154,17.0526316 14.4041745,17.0526316 L4.3158255,17.0526316 C3.12519595,17.0526316 2.16,16.0486257 2.16,14.8152328 L2.16,8.86466165" id="Rectangle-37" stroke-linecap="round"></path>
                        <use id="Oval-44-Copy" mask="url(#mask-2)" stroke-width="2" xlink:href="#path-1"></use>
                        <use id="Oval-44-Copy-2" mask="url(#mask-4)" stroke-width="2" xlink:href="#path-3"></use>
                        <path d="M9.27895717,4.07006272 L9.27895717,8.53622814" id="Line" stroke-linecap="round"></path>
                    </g>
                </g>
            </g>
        </g>
    </g>
</svg>