<?xml version="1.0" encoding="UTF-8" standalone="no"?>
<svg width="12px" height="12px" viewBox="0 0 12 12" version="1.1" xmlns="http://www.w3.org/2000/svg" xmlns:xlink="http://www.w3.org/1999/xlink">
    <!-- Generator: sketchtool 39.1 (31720) - http://www.bohemiancoding.com/sketch -->
    <title>5A9C0ADE-8D2C-4AD1-8B78-89C01827680A</title>
    <desc>Created with sketchtool.</desc>
    <defs></defs>
    <g id="-" stroke="none" stroke-width="1" fill="none" fill-rule="evenodd" stroke-linecap="round">
        <g id="规范" transform="translate(-477.000000, -1677.000000)" stroke="#05D380">
            <g id="男" transform="translate(477.000000, 1677.000000)">
                <g transform="translate(6.000000, 6.000000) rotate(-180.000000) translate(-6.000000, -6.000000) translate(1.000000, 1.000000)">
                    <path d="M5.08492796,8.26630404 C5.32772104,8.31033797 5.57784176,8.33333333 5.83333333,8.33333333 C8.13451979,8.33333333 10,6.46785312 10,4.16666667 C10,1.86548021 8.13451979,0 5.83333333,0 C3.53214688,0 1.66666667,1.86548021 1.66666667,4.16666667 C1.66666667,5.29932271 2.1186091,6.32642195 2.85200115,7.07747155" id="Oval-85"></path>
                    <path d="M2.87867975,7.12132034 C2.87867975,7.12132034 -4.52970994e-13,9.97695693 -4.52970994e-13,9.97695693 L-4.52789956e-13,7.02038818" id="Path-104" stroke-linejoin="round"></path>
                    <path d="M1,10.9565687 L1,8" id="Path-104-Copy" stroke-linejoin="round" transform="translate(1.500000, 9.478284) scale(-1, 1) rotate(-90.000000) translate(-1.500000, -9.478284) "></path>
                </g>
            </g>
        </g>
    </g>
</svg>