<?xml version="1.0" encoding="UTF-8" standalone="no"?>
<svg width="60px" height="60px" viewBox="0 0 60 60" version="1.1" xmlns="http://www.w3.org/2000/svg" xmlns:xlink="http://www.w3.org/1999/xlink">
    <!-- Generator: sketchtool 39.1 (31720) - http://www.bohemiancoding.com/sketch -->
    <title>FD14EC95-534C-43DA-BA67-E0BE42918A49</title>
    <desc>Created with sketchtool.</desc>
    <defs></defs>
    <g id="-" stroke="none" stroke-width="1" fill="none" fill-rule="evenodd">
        <g id="规范" transform="translate(-477.000000, -1722.000000)">
            <g id="直播" transform="translate(477.000000, 1722.000000)">
                <g id="直播icon-copy-9">
                    <g id="直播">
                        <path d="M30,60 C46.5685425,60 60,46.5685425 60,30 C60,13.4314575 46.5685425,0 30,0 C13.4314575,0 0,13.4314575 0,30 C0,46.5685425 13.4314575,60 30,60 Z" id="Oval-10" fill="#08D482" opacity="0.99"></path>
                        <g id="live" transform="translate(14.000000, 13.000000)" stroke-linecap="round" stroke="#FFFFFF" stroke-width="1.5" stroke-linejoin="round">
                            <g id="Group-2" transform="translate(16.000000, 5.000000) rotate(-360.000000) translate(-16.000000, -5.000000) translate(4.000000, 0.000000)">
                                <path d="M18.0801756,9.60366496 C16.8461887,7.47853903 14.5943991,6.05630775 12.02108,6.05630775 C9.41817318,6.05630775 7.14423217,7.5114324 5.91982442,9.67724609" id="Oval-2324"></path>
                                <path d="M23.0795288,6.14341208 C20.580907,2.57310318 16.5156901,0.25 11.92528,0.25 C7.42527435,0.25 3.42997911,2.48250088 0.920471181,5.93392833" id="Oval-2324"></path>
                            </g>
                            <g id="Group-21" transform="translate(0.000000, 15.000000)">
                                <g id="live">
                                    <polyline id="Path-3910" points="0.64140625 0.365429688 0.64140625 10.3851563 7.10039062 10.3851563"></polyline>
                                    <path d="M10.4,0.456175594 L10.4,10.3055061" id="Path-3910-Copy"></path>
                                    <polyline id="Path-3912" points="13.458817 0.38046875 17.3252606 10.3903275 21.609673 0.38046875"></polyline>
                                    <polyline id="Path-3913" points="31.5746583 0.52686012 24.7809896 0.52686012 24.7809896 10.3973962 31.5840698 10.3973962"></polyline>
                                    <path d="M25.3671612,5.46212814 L31.5840698,5.46212814" id="Path-3914"></path>
                                </g>
                            </g>
                        </g>
                    </g>
                </g>
            </g>
        </g>
    </g>
</svg>