<svg viewBox="0 0 150 140" xmlns="http://www.w3.org/2000/svg" xmlns:xlink="http://www.w3.org/1999/xlink"><title>773EC8E4-D6F2-4675-9764-2689D9BDB877</title><defs><rect id="a" x=".043" y=".42" width="95.277" height="71.244" rx="25"/></defs><g fill="none" fill-rule="evenodd"><path d="M76.5 138.043c34.485 0 62.44-1.13 62.44-2.52 0-1.394-27.955-2.523-62.44-2.523s-62.44 1.13-62.44 2.522 27.955 2.52 62.44 2.52z" fill="#EBEBEB"/><g transform="translate(13.5 17)"><rect stroke="#CACACA" stroke-width="1.5" stroke-linecap="round" stroke-linejoin="round" fill="#FFF" transform="rotate(132 65.84 0)" x="57.439" y="9.337" width="26.36" height="2.802" rx="1.401"/><rect stroke="#CACACA" stroke-width="1.5" stroke-linecap="round" stroke-linejoin="round" fill="#FFF" transform="rotate(48 56.71 14.608)" x="48.835" y="13.207" width="15.749" height="2.802" rx="1.401"/><path d="M73.09 25.192S71.596 19.4 62.15 19.4 51.21 25.19 51.21 25.19h21.88z" stroke="#CACACA" stroke-width="1.5" stroke-linecap="round" stroke-linejoin="round" fill="#FFF"/><path d="M0 28.973c0-2.207 1.78-3.996 3.997-3.996h118.006c2.208 0 3.997 1.798 3.997 3.996v79.08c0 2.208-1.78 3.997-3.997 3.997H3.997C1.79 112.05 0 110.252 0 108.054v-79.08z" stroke="#CACACA" stroke-width="1.5" stroke-linecap="round" fill="#FFF"/><path d="M21.28 116.526c4.48 0 4.48-4.483 4.48-4.483H16.8s0 4.483 4.48 4.483zM104.72 116.526c4.48 0 4.48-4.483 4.48-4.483h-8.96s0 4.483 4.48 4.483z" stroke="#CACACA" stroke-width="1.5" stroke-linecap="round" fill="#FFF"/><g transform="translate(7.84 32.47)"><mask id="b" fill="#fff"><use xlink:href="#a"/></mask><path d="M-2.227-32.747c0-1.382 1.13-2.502 2.5-2.502h9.5v141.584h-9.5c-1.38 0-2.5-1.12-2.5-2.503V-32.746zm28.043-2.502h12v141.584h-12V-35.25zm29.22 0h12v141.584h-12V-35.25zm29.22 0h9.498c1.38 0 2.5 1.12 2.5 2.503V103.83c0 1.383-1.128 2.504-2.5 2.504h-9.5V-35.25z" fill="#EBEBEB" mask="url(#b)" transform="rotate(30 47.014 35.542)"/></g><rect stroke="#CACACA" stroke-width="1.5" stroke-linecap="round" x="7.883" y="32.891" width="95.277" height="71.244" rx="25"/><ellipse stroke="#CACACA" stroke-width="1.5" stroke-linecap="round" cx="114.24" cy="39.756" rx="5.6" ry="5.604"/><ellipse fill="#EBEBEB" cx="114.24" cy="39.756" rx="2.8" ry="2.802"/><path d="M108.36 50.683h11.2M108.36 55.726h11.2M108.36 60.77h11.2" stroke="#CACACA" stroke-width="1.5" stroke-linecap="round"/></g><path d="M51 10v2.5m4.596-.596l-1.768 1.768M57.5 16.5H55m.596 4.596l-1.768-1.768M51 23v-2.5m-4.596.596l1.768-1.768M44.5 16.5H47m-.596-4.596l1.768 1.768" stroke="#CACACA" stroke-width="1.5" stroke-linecap="round"/><circle stroke="#CACACA" stroke-width="1.5" stroke-linecap="round" cx="20.5" cy="19.5" r="3"/><g stroke="#CACACA" stroke-width="1.5" stroke-linecap="round"><path d="M36.75 3.25v4.5M39 5.5h-4.5"/></g><path opacity=".32" d="M0 0h150v140H0z"/></g></svg>