<?xml version="1.0" encoding="UTF-8" standalone="no"?>
<svg width="14px" height="14px" viewBox="0 0 14 14" version="1.1" xmlns="http://www.w3.org/2000/svg" xmlns:xlink="http://www.w3.org/1999/xlink">
    <!-- Generator: sketchtool 39.1 (31720) - http://www.bohemiancoding.com/sketch -->
    <title>CFC49D64-BB40-41D3-A254-B2C86522978B</title>
    <desc>Created with sketchtool.</desc>
    <defs></defs>
    <g id="-" stroke="none" stroke-width="1" fill="none" fill-rule="evenodd">
        <g id="规范" transform="translate(-563.000000, -1676.000000)">
            <g id="金币14-未加载" transform="translate(563.000000, 1676.000000)">
                <g id="金币-14未加载">
                    <circle id="Oval-3173-Copy-10" fill="#D9D9D9" cx="7" cy="7" r="7"></circle>
                    <path d="M7,12.5641026 C10.072969,12.5641026 12.5641026,10.072969 12.5641026,7 C12.5641026,3.92703101 10.072969,1.43589744 7,1.43589744 C3.92703101,1.43589744 1.43589744,3.92703101 1.43589744,7 C1.43589744,10.072969 3.92703101,12.5641026 7,12.5641026 Z" id="Oval-3173-Copy-12" fill="#CDCDCD"></path>
                    <g id="Page-1-Copy-4" transform="translate(3.948718, 3.948718)" fill="#DFDFDF">
                        <path d="M6.02312131,0.053464482 C5.98322203,0.0135652064 5.94042198,-8.20972764e-06 5.86713648,-8.20972764e-06 L4.2198273,-8.20972764e-06 C4.1465418,-8.20972764e-06 4.10374175,0.0135652064 4.06386984,0.053464482 C4.02397056,0.0933363919 4.01039715,0.136136438 4.01039715,0.209449304 L4.01039715,1.00146908 C4.01039715,1.0651492 4.01132758,1.14502985 4.00662067,1.18315035 C4.00183167,1.22209182 3.98968127,1.24368341 3.96488789,1.2579957 C3.94012188,1.27230799 3.9153285,1.27203433 3.8792057,1.25670951 C3.84384914,1.24174044 3.77513372,1.20096546 3.71999172,1.16913908 C3.71999172,1.16913908 2.07810095,0.221517604 1.945076,0.144400897 C1.77847327,0.0478271358 1.63266851,-8.20972764e-06 1.42468874,-8.20972764e-06 L0.209457514,-8.20972764e-06 C0.136144648,-8.20972764e-06 0.0933446016,0.0135652064 0.0534726917,0.053464482 C0.0136007819,0.0933363919 0,0.136136438 0,0.209449304 L0,5.86688198 C0,5.94019485 0.0135734161,5.98299489 0.0534726917,6.0228668 C0.0933446016,6.06276608 0.136144648,6.0763395 0.209457514,6.0763395 L1.85652041,6.0763395 C1.92980591,6.0763395 1.97260596,6.06276608 2.01247787,6.0228668 C2.05237714,5.98299489 2.06595056,5.94019485 2.06595056,5.86688198 L2.06595056,5.07486221 C2.06595056,5.01118209 2.06502012,4.93130144 2.06969967,4.8932083 C2.07451604,4.85423946 2.08666644,4.83264788 2.11145981,4.81833559 C2.13622582,4.8040233 2.1610192,4.80429695 2.197142,4.81962178 C2.23249856,4.83461821 2.30121398,4.87536583 2.35635598,4.9071922 C2.35635598,4.9071922 3.99824675,5.85484105 4.1312717,5.93193039 C4.29787444,6.02850415 4.4436792,6.0763395 4.65165896,6.0763395 L5.86713648,6.0763395 C5.94042198,6.0763395 5.98322203,6.06276608 6.02312131,6.0228668 C6.06299322,5.98299489 6.076594,5.94019485 6.076594,5.86688198 L6.076594,0.209449304 C6.076594,0.136136438 6.06299322,0.0933363919 6.02312131,0.053464482 M4.30923123,3.02059683 C4.27858158,3.04372089 4.20893572,3.08285393 4.15379372,3.1146803 L2.35635598,4.15247196 C2.30121398,4.18429833 2.23249856,4.22507331 2.197142,4.24004238 C2.1610192,4.25536721 2.13622582,4.25564086 2.11145981,4.24132857 C2.08666644,4.22701628 2.07451604,4.2054247 2.06969967,4.16648322 C2.06502012,4.12836272 2.06595056,4.04848207 2.06595056,3.98480195 L2.06595056,1.90921865 C2.06595056,1.8455659 2.06502012,1.76568525 2.06969967,1.72756475 C2.07451604,1.68862327 2.08666644,1.66703169 2.11145981,1.6527194 C2.13622582,1.63840711 2.1610192,1.63868076 2.197142,1.65400559 C2.23249856,1.66897466 2.30121398,1.70972227 2.35635598,1.74157601 L4.15379372,2.77936767 C4.20893572,2.81119404 4.27858158,2.85032708 4.30923123,2.87345114 C4.34056502,2.89706779 4.353208,2.91841308 4.353208,2.9470103 C4.353208,2.97563489 4.34056502,2.99695281 4.30923123,3.02059683" id="Fill-1"></path>
                    </g>
                </g>
            </g>
        </g>
    </g>
</svg>