<?xml version="1.0" encoding="UTF-8" standalone="no"?>
<svg width="36px" height="36px" viewBox="0 0 36 36" version="1.1" xmlns="http://www.w3.org/2000/svg" xmlns:xlink="http://www.w3.org/1999/xlink">
    <!-- Generator: sketchtool 39.1 (31720) - http://www.bohemiancoding.com/sketch -->
    <title>28FE5582-A4E9-432D-B1A1-86551EB81685</title>
    <desc>Created with sketchtool.</desc>
    <defs>
        <path d="M0,4.99942248 C0,3.34288718 1.35034084,2 3.00134132,2 L4.95307075,2 C5.64751519,2 6.11111111,5.64354785e-10 8.14751519,5.64354785e-10 C10.429145,5.64354785e-10 9.37744141,-7.0540529e-10 11.6666667,5.64297942e-10 C13.3333333,1.48870316e-09 14.3795211,2 15,2 L16.9928673,2 C18.6536608,2 20,3.34435074 20,4.99942248 L20,14.0005775 C20,15.6571128 18.656688,17 17.0057979,17 L2.99420208,17 C1.34054993,17 0,15.6556493 0,14.0005775 L0,4.99942248 Z" id="path-1"></path>
        <mask id="mask-2" maskContentUnits="userSpaceOnUse" maskUnits="objectBoundingBox" x="0" y="0" width="20" height="17" fill="white">
            <use xlink:href="#path-1"></use>
        </mask>
    </defs>
    <g id="-" stroke="none" stroke-width="1" fill="none" fill-rule="evenodd" opacity="0.5">
        <g id="规范" transform="translate(-193.000000, -1890.000000)" stroke="#05D380">
            <g id="换封面--p" transform="translate(193.000000, 1890.000000)">
                <g id="换封面" transform="translate(8.000000, 10.000000)">
                    <use id="Rectangle-98" mask="url(#mask-2)" stroke-width="2" xlink:href="#path-1"></use>
                    <path d="M14,9 C14,6.790861 12.209139,5 10,5 C7.790861,5 6,6.790861 6,9 C6,11.209139 7.790861,13 10,13 C10.7005888,13 11.3591103,12.8198882 11.9317861,12.5034428" id="Oval-598-Copy" stroke-linecap="round" stroke-linejoin="round"></path>
                </g>
            </g>
        </g>
    </g>
</svg>