<?xml version="1.0" encoding="UTF-8" standalone="no"?>
<svg width="36px" height="36px" viewBox="0 0 36 36" version="1.1" xmlns="http://www.w3.org/2000/svg" xmlns:xlink="http://www.w3.org/1999/xlink">
    <!-- Generator: sketchtool 39.1 (31720) - http://www.bohemiancoding.com/sketch -->
    <title>8D17BAE7-3E49-4D81-BA60-D6A67AB7A58F</title>
    <desc>Created with sketchtool.</desc>
    <defs></defs>
    <g id="-" stroke="none" stroke-width="1" fill="none" fill-rule="evenodd">
        <g id="规范" transform="translate(-109.000000, -1348.000000)">
            <g id="直播分享icon" transform="translate(50.000000, 1304.000000)">
                <g id="分享" transform="translate(3.000000, 44.000000)">
                    <g id="登陆">
                        <g id="QQ-－n" transform="translate(56.000000, 0.000000)">
                            <g id="qq">
                                <path d="M18,36 C27.9411255,36 36,27.9411255 36,18 C36,8.0588745 27.9411255,0 18,0 C8.0588745,0 0,8.0588745 0,18 C0,27.9411255 8.0588745,36 18,36 Z" id="Oval-794" fill="#00A5E0"></path>
                                <path d="M23.7912362,21.7912846 C24.4502116,22.9000261 24.7608431,23.0694998 24.9871178,22.9946194 C25.2133925,22.9197389 25.4428571,22.2265273 25.4428571,21.1975591 C25.4428571,20.1685908 24.9872596,18.6229048 24.0869812,17.673568 C23.8765476,16.8213892 23.636854,16.3754549 23.5053478,16.1776718 C23.5298741,15.8793071 23.5367867,15.5697767 23.5224995,15.2496674 C23.3656449,11.735276 21.2465475,9.52446757 18.3163156,9.33935479 C18.243257,9.32435991 18.1668648,9.31666667 18.0870146,9.31666667 C14.9495798,9.31666667 12.6414645,11.5659171 12.4775005,15.2395982 C12.4632133,15.5597075 12.4701259,15.869238 12.4946522,16.1676027 C12.363146,16.3653858 12.1234524,16.8113201 11.9130188,17.6634988 C11.0127404,18.6128356 10.5571429,20.1585217 10.5571429,21.1874899 C10.5571429,22.2164582 10.7866075,22.9096698 11.0128822,22.9845502 C11.2391569,23.0594307 11.5497884,22.8899569 12.2087638,21.7812154 C12.4721424,22.7058809 13.0088392,23.5225407 13.7579093,24.1640777 C13.2585523,24.291854 12.1656639,24.6540713 12.1656639,25.3768961 C12.1656639,26.3137528 13.4096076,26.6732642 14.9419948,26.6732642 C16.3856022,26.6732642 17.755162,25.935711 17.9090092,25.6557349 C17.9678912,25.6555351 18.0264868,25.6547156 18.0847893,25.6532839 C18.2029643,25.9230479 19.5923199,26.6833333 21.0580052,26.6833333 C22.5903924,26.6833333 23.8343361,26.323822 23.8343361,25.3869652 C23.8343361,24.6641404 22.7414477,24.3019231 22.2420907,24.1741469 C22.9911608,23.5326099 23.5278576,22.7159501 23.7912362,21.7912846 Z" id="Path-236" fill="#FFFFFF"></path>
                            </g>
                        </g>
                    </g>
                </g>
            </g>
        </g>
    </g>
</svg>