<?xml version="1.0" encoding="UTF-8" standalone="no"?>
<svg width="36px" height="36px" viewBox="0 0 36 36" version="1.1" xmlns="http://www.w3.org/2000/svg" xmlns:xlink="http://www.w3.org/1999/xlink">
    <!-- Generator: sketchtool 39.1 (31720) - http://www.bohemiancoding.com/sketch -->
    <title>D1431D5F-E719-4E63-A4FC-FA919E2B1F28</title>
    <desc>Created with sketchtool.</desc>
    <defs></defs>
    <g id="-" stroke="none" stroke-width="1" fill="none" fill-rule="evenodd">
        <g id="规范" transform="translate(-375.000000, -1595.000000)" stroke="#333333">
            <g id="表情" transform="translate(375.000000, 1595.000000)">
                <g id="表情-copy" transform="translate(9.000000, 9.000000)">
                    <path d="M15.5655391,15.1558281 C17.0753517,13.5461713 18,11.3810672 18,9 C18,4.02943725 13.9705627,0 9,0 C4.02943725,0 0,4.02943725 0,9 C0,13.9705627 4.02943725,18 9,18 C10.3937692,18 11.7135407,17.6831783 12.8912255,17.1176238" id="Oval-136" stroke-linecap="round"></path>
                    <path d="M6.27272727,13.5454545 C7.12622377,14.0579357 8.12541334,14.3526104 9.19342786,14.3526104 C10.218392,14.3526104 11.1799679,14.0812129 12.0102132,13.6063603" id="Oval-136" stroke-linecap="round" stroke-linejoin="round"></path>
                    <polyline id="Path-223" stroke-linecap="round" stroke-linejoin="round" points="11.3303379 5.98707858 11.3303379 8.55837588 13.8032463 8.55837597"></polyline>
                    <circle id="Oval-125" cx="6.27272727" cy="7.27272727" r="1.81818182"></circle>
                </g>
            </g>
        </g>
    </g>
</svg>