<?xml version="1.0" encoding="UTF-8" standalone="no"?>
<svg width="36px" height="36px" viewBox="0 0 36 36" version="1.1" xmlns="http://www.w3.org/2000/svg" xmlns:xlink="http://www.w3.org/1999/xlink">
    <!-- Generator: sketchtool 39.1 (31720) - http://www.bohemiancoding.com/sketch -->
    <title>74114355-BB75-4E8C-9F82-F700706826EF</title>
    <desc>Created with sketchtool.</desc>
    <defs></defs>
    <g id="-" stroke="none" stroke-width="1" fill="none" fill-rule="evenodd">
        <g id="规范" transform="translate(-165.000000, -1348.000000)">
            <g id="直播分享icon" transform="translate(50.000000, 1304.000000)">
                <g id="分享" transform="translate(3.000000, 44.000000)">
                    <g id="登陆">
                        <g id="微信-nr" transform="translate(112.000000, 0.000000)">
                            <path d="M18,36 C27.9411255,36 36,27.9411255 36,18 C36,8.0588745 27.9411255,0 18,0 C8.0588745,0 0,8.0588745 0,18 C0,27.9411255 8.0588745,36 18,36 Z" id="Oval-794-Copy" fill="#51C658"></path>
                            <path d="M15.5743703,22.7585978 C14.6338431,22.7585978 13.8778543,22.5618691 12.9353252,22.3712941 L10.3015578,23.7248992 L11.0542707,21.4018226 C9.16903049,20.051574 8.03923309,18.3095463 8.03923309,16.190098 C8.03923309,12.5165863 11.4322651,9.62364932 15.5743703,9.62364932 C19.2784242,9.62364932 22.5244079,11.9340457 23.177026,15.0449693 C22.9373444,15.0175578 22.695843,15.0002158 22.4516116,15.0002158 C18.8720393,15.0002158 16.0455439,17.7367023 16.0455439,21.1101794 C16.0455439,21.6707162 16.1310794,22.211487 16.2779458,22.7280163 C16.0449979,22.7466635 15.810776,22.7585978 15.5743703,22.7585978 L15.5743703,22.7585978 Z M26.6883519,25.462638 L27.2563444,27.3928166 L25.1898416,26.2325837 C24.4358547,26.4263288 23.678774,26.6198874 22.9280629,26.6198874 C19.3432128,26.6198874 16.5201752,24.1094058 16.5201752,21.017316 C16.5201752,17.9304474 19.3432128,15.4149311 22.9280629,15.4149311 C26.3123594,15.4149311 29.328125,17.9304474 29.328125,21.017316 C29.328125,22.7585978 28.2016034,24.3007268 26.6883519,25.462638 L26.6883519,25.462638 Z" id="Fill-11" fill="#FFFFFF"></path>
                            <circle id="Oval-1345" fill="#51C658" cx="13" cy="14" r="1"></circle>
                            <circle id="Oval-1345-Copy-2" fill="#51C658" cx="20.75" cy="19.75" r="0.75"></circle>
                            <circle id="Oval-1345-Copy" fill="#51C658" cx="18" cy="14" r="1"></circle>
                            <circle id="Oval-1345-Copy-3" fill="#51C658" cx="24.75" cy="19.75" r="0.75"></circle>
                        </g>
                    </g>
                </g>
            </g>
        </g>
    </g>
</svg>