<svg viewBox="0 0 150 140" xmlns="http://www.w3.org/2000/svg" xmlns:xlink="http://www.w3.org/1999/xlink"><title>E78B9B90-67BC-4FD8-8DAA-499AFBE37DE2</title><defs><ellipse id="b" cx="46.454" cy="46.565" rx="46.454" ry="46.565"/><path d="M124.56 44.402l-2.57 1.35c-1.71.9-2.833.085-2.506-1.822l.49-2.86-2.078-2.025c-1.384-1.35-.957-2.67.958-2.948l2.872-.417 1.284-2.602c.856-1.734 2.243-1.735 3.1 0l1.283 2.602 2.872.417c1.913.28 2.343 1.597.957 2.948l-2.077 2.025.49 2.86c.327 1.906-.795 2.722-2.507 1.822l-2.57-1.35z" id="a"/><mask id="d" x="0" y="0" width="14.951" height="14.341" fill="#fff"><use xlink:href="#a"/></mask></defs><g fill="none" fill-rule="evenodd"><path d="M50 10v2.5m4.596-.596l-1.768 1.768M56.5 16.5H54m.596 4.596l-1.768-1.768M50 23v-2.5m-4.596.596l1.768-1.768M43.5 16.5H46m-.596-4.596l1.768 1.768" stroke="#CACACA" stroke-width="1.5" stroke-linecap="round"/><circle stroke="#CACACA" stroke-width="1.5" stroke-linecap="round" cx="19.5" cy="19.5" r="3"/><g stroke="#CACACA" stroke-width="1.5" stroke-linecap="round"><path d="M35.75 3.25v4.5M38 5.5h-4.5"/></g><path opacity=".32" d="M0 0h150v140H0z"/><g transform="translate(1 33)"><g transform="translate(27.546)"><mask id="c" fill="#fff"><use xlink:href="#b"/></mask><use fill="#FFF" xlink:href="#b"/><path d="M-4.31-19.62c0-1.383 1.112-2.505 2.497-2.505h9.556v142.552h-9.556c-1.38 0-2.497-1.127-2.497-2.505V-19.62zm28.17-2.505H35.91v142.552H23.86V-22.125zm29.348 0H65.26v142.552H53.21V-22.125zm29.35 0h9.555c1.38 0 2.498 1.127 2.498 2.505v137.542c0 1.383-1.112 2.505-2.497 2.505h-9.556V-22.125z" fill="#EBEBEB" mask="url(#c)" transform="rotate(30 45.15 49.15)"/></g><ellipse stroke="#CACACA" stroke-width="1.5" stroke-linecap="round" cx="74" cy="46.565" rx="46.454" ry="46.565"/><path d="M27.78 50.543s20.775 3.743 46.92 3.743c26.145 0 46.22-3.743 46.22-3.743s5.604-1.17 6.77-2.574c1.168-1.405 1.4-2.107.935-2.575-.467-.468-5.603-2.808-7.004-3.042-1.4-.234-.7 0-.7 0l-.466-4.68s25.212 3.276 27.08 8.892c1.867 5.615-28.714 9.125-28.714 9.125s-25.445 2.574-43.886 2.574c-18.442 0-41.552-1.872-46.455-2.574-4.903-.702-23.578-3.276-26.846-6.785-3.268-3.51 0-5.382 6.303-7.254 6.303-1.87 19.842-3.743 19.842-3.743l-.7 4.212s-5.37.935-7.47 3.04c-2.102 2.107-.235 3.043.466 3.043.7 0-.234.468 3.735 1.404 3.97.936 2.57.702 2.57.702" fill="#FFF"/></g><path d="M74.767 91.03c40.62 0 73.552-5.028 73.552-11.23 0-3.56-10.414-6.835-27.333-8.893m-91.74 0C12.07 72.963 1.213 76.207 1.213 79.8c0 6.202 32.93 11.23 73.553 11.23m0-4.244c30.41 0 55.06-3.562 55.06-7.955 0-1.562-3.117-3.02-8.504-4.25m-92.544-.195c-5.796 1.26-9.075 2.82-9.075 4.446 0 4.394 24.652 7.956 55.062 7.956" stroke="#CACACA" stroke-width="1.5" stroke-linecap="round" stroke-linejoin="round"/><use stroke="#CACACA" mask="url(#d)" stroke-width="3" stroke-linecap="round" stroke-linejoin="round" fill="#FFF" transform="rotate(30 124.56 38.948)" xlink:href="#a"/><path d="M75 137.5c23.748 0 43-1.007 43-2.25S98.748 133 75 133s-43 1.007-43 2.25 19.252 2.25 43 2.25z" fill="#EBEBEB"/></g></svg>