<?xml version="1.0" encoding="UTF-8" standalone="no"?>
<svg width="36px" height="36px" viewBox="0 0 36 36" version="1.1" xmlns="http://www.w3.org/2000/svg" xmlns:xlink="http://www.w3.org/1999/xlink">
    <!-- Generator: sketchtool 39.1 (31720) - http://www.bohemiancoding.com/sketch -->
    <title>3A7DCA3E-04B0-4196-A3B5-ACCECF6CF495</title>
    <desc>Created with sketchtool.</desc>
    <defs></defs>
    <g id="-" stroke="none" stroke-width="1" fill="none" fill-rule="evenodd">
        <g id="规范" transform="translate(-773.000000, -1465.000000)">
            <g id="直播页v2.0icon" transform="translate(496.000000, 1305.000000)">
                <g id="icon-美颜p" transform="translate(277.000000, 160.000000)">
                    <circle id="Oval-50-Copy-7" fill-opacity="0.5" fill="#000000" opacity="0.3" cx="18" cy="18" r="18"></circle>
                    <g id="美颜-copy-2" transform="translate(2.000000, 3.000000)" stroke="#FFFFFF" stroke-linecap="round" stroke-linejoin="round">
                        <path d="M9.72528686,14.5738737 C9.0697493,13.9316057 7.75867418,12.6470695 7.75867418,12.6470695 C7.16651135,12.0668933 7.35640639,11.4987207 8.16822029,11.3801523 L12.1916638,10.7925136 C13.0100127,10.6729907 13.9730209,9.96591848 14.3360751,9.22651783 L16.1354137,5.56196283 C16.5013905,4.81661011 17.0976786,4.82256219 17.4607328,5.56196283 L19.2600714,9.22651783 C19.6260482,9.97187055 20.5926688,10.6739452 21.4044827,10.7925136 L25.4279262,11.3801523 C26.2462751,11.4996752 26.4249064,12.0715264 25.8374723,12.6470695 L22.9260813,15.4995278 C22.3339184,16.079704 21.9683147,17.2206822 22.106989,18.0333622 L22.7942752,22.0610979 C22.9340659,22.8803198 22.448178,23.2277912 21.7220696,22.8440958 L18.1233923,20.9424569 C17.3914388,20.5556728 16.1988626,20.5587615 15.4727542,20.9424569 L11.8740769,22.8440958 C11.1421234,23.2308799 10.6631969,22.8737778 10.8018713,22.0610979 C10.8018713,22.0610979 11.1325353,20.123292 11.2978673,19.154389 C11.3616307,18.7807134 11.4891575,18.0333622 11.4891575,18.0333622 L3.94377213,20.2695795" id="Star-2" transform="translate(15.063284, 14.002799) rotate(-30.000000) translate(-15.063284, -14.002799) "></path>
                        <path d="M13.9285714,14 C13.9285714,14 13.9285714,17.2307692 17.6785714,17.2307692" id="Path-115"></path>
                    </g>
                </g>
            </g>
        </g>
    </g>
</svg>