<?xml version="1.0" encoding="UTF-8" standalone="no"?>
<svg width="36px" height="36px" viewBox="0 0 36 36" version="1.1" xmlns="http://www.w3.org/2000/svg" xmlns:xlink="http://www.w3.org/1999/xlink">
    <!-- Generator: sketchtool 39.1 (31720) - http://www.bohemiancoding.com/sketch -->
    <title>4022683F-1A16-4BE2-B166-98B8EFC76672</title>
    <desc>Created with sketchtool.</desc>
    <defs></defs>
    <g id="-" stroke="none" stroke-width="1" fill="none" fill-rule="evenodd" opacity="0.5">
        <g id="规范" transform="translate(-637.000000, -1465.000000)">
            <g id="直播页v2.0icon" transform="translate(496.000000, 1305.000000)">
                <g id="icon私信-p" transform="translate(141.000000, 160.000000)">
                    <g id="私信">
                        <path d="M18,36 C27.9411255,36 36,27.9411255 36,18 C36,8.0588745 27.9411255,0 18,0 C8.0588745,0 0,8.0588745 0,18 C0,27.9411255 8.0588745,36 18,36 Z" id="Oval-50-Copy-3" fill="#000000" opacity="0.3"></path>
                        <path d="M27,17.3970588 L27,22.9350177 C27,24.3516183 25.846637,25.5 24.4210389,25.5 L11.5789611,25.5 C10.1546402,25.5 9,24.3622093 9,22.9410688 L9,13.5589312 C9,12.1456725 10.153363,11 11.5789611,11 L24.4210389,11 C25.8453598,11 27,12.1469543 27,13.5577843 C27,13.5577843 18.8571429,18.6764706 18.4285714,18.6764706 C18,18.6764706 9,13.5577843 9,13.5577843" id="Rectangle-294" stroke="#FFFFFF" stroke-linecap="round" stroke-linejoin="round"></path>
                    </g>
                </g>
            </g>
        </g>
    </g>
</svg>