<?xml version="1.0" encoding="UTF-8" standalone="no"?>
<svg width="36px" height="36px" viewBox="0 0 36 36" version="1.1" xmlns="http://www.w3.org/2000/svg" xmlns:xlink="http://www.w3.org/1999/xlink">
    <!-- Generator: sketchtool 39.1 (31720) - http://www.bohemiancoding.com/sketch -->
    <title>D9DAB736-7072-45A2-87B8-92C3A02FD7A9</title>
    <desc>Created with sketchtool.</desc>
    <defs></defs>
    <g id="-" stroke="none" stroke-width="1" fill="none" fill-rule="evenodd">
        <g id="规范" transform="translate(-589.000000, -1361.000000)">
            <g id="直播页v2.0icon" transform="translate(496.000000, 1305.000000)">
                <g id="icon－录屏" transform="translate(93.000000, 56.000000)">
                    <g id="icon－摄像-copy-2">
                        <ellipse id="Oval-50-Copy-4" fill="#000000" opacity="0.3" cx="18" cy="18" rx="18" ry="18"></ellipse>
                        <g id="Group-10" transform="translate(7.500000, 11.000000)">
                            <path d="M16,9.992657 L16,10.9102998 C16,12.3405517 14.8749111,13.5 13.5,13.5 L2.5,13.5 C1.11928813,13.5 0,12.3373133 0,10.8970642 L0,2.60293579 C0,1.16537405 1.12508893,0 2.5,0 L13.5,0 C14.8807119,0 16,1.16879868 16,2.58750372 L16,4.21789551" id="Rectangle-340" stroke="#FFFFFF" stroke-linecap="round" stroke-linejoin="round"></path>
                            <ellipse id="Oval-930" fill="#FFFFFF" cx="4.5" cy="4.5" rx="1.5" ry="1.5"></ellipse>
                            <g id="icon－摄像" transform="translate(16.000000, 1.000000)" stroke-linecap="round" stroke="#FFFFFF">
                                <g id="Group-2">
                                    <path d="M0,3.31295007 L3.89771186,0.119270036 C4.50648879,-0.188263611 5,0.118719499 5,0.812501697 L5,10.1871393 C5,10.8775342 4.50734437,11.1883368 3.90110883,10.882087 L2.14709271,9.5616641" id="Rectangle-15-Copy-2"></path>
                                </g>
                            </g>
                        </g>
                    </g>
                </g>
            </g>
        </g>
    </g>
</svg>