<?xml version="1.0" encoding="UTF-8" standalone="no"?>
<svg width="36px" height="36px" viewBox="0 0 36 36" version="1.1" xmlns="http://www.w3.org/2000/svg" xmlns:xlink="http://www.w3.org/1999/xlink">
    <!-- Generator: sketchtool 39.1 (31720) - http://www.bohemiancoding.com/sketch -->
    <title>214B1DB7-5ECC-4E45-A08F-914A517EE49D</title>
    <desc>Created with sketchtool.</desc>
    <defs>
        <path d="M8,13.9994225 C8,12.3428872 9.35034084,11 11.0013413,11 L12.9530707,11 C13.6475152,11 14.1111111,9 16.1475152,9 C18.429145,9 17.3774414,9 19.6666667,9 C21.3333333,9 22.3795211,11 23,11 L24.9928673,11 C26.6536608,11 28,12.3443507 28,13.9994225 L28,23.0005775 C28,24.6571128 26.656688,26 25.0057979,26 L10.9942021,26 C9.34054993,26 8,24.6556493 8,23.0005775 L8,13.9994225 Z" id="path-1"></path>
        <mask id="mask-2" maskContentUnits="userSpaceOnUse" maskUnits="objectBoundingBox" x="0" y="0" width="20" height="17" fill="white">
            <use xlink:href="#path-1"></use>
        </mask>
    </defs>
    <g id="-" stroke="none" stroke-width="1" fill="none" fill-rule="evenodd">
        <g id="规范" transform="translate(-681.000000, -1361.000000)">
            <g id="直播页v2.0icon" transform="translate(496.000000, 1305.000000)">
                <g id="icon-旋转镜头" transform="translate(185.000000, 56.000000)">
                    <g id="icon-翻转镜头-">
                        <ellipse id="Oval-50-Copy-8" fill="#000000" opacity="0.3" cx="18" cy="18" rx="18" ry="18"></ellipse>
                        <use id="Rectangle-98" stroke="#FFFFFF" mask="url(#mask-2)" stroke-width="2" xlink:href="#path-1"></use>
                        <g id="Group-2" transform="translate(14.000000, 13.000000)" stroke="#FFFFFF" stroke-linecap="round" stroke-linejoin="round">
                            <path d="M1.31757032,1.66977201 C3.31226596,0.111344971 6.18220005,0.451646751 7.72774753,2.42985731 C8.72663519,3.70837521 8.9278528,5.35814869 8.40673731,6.78596696 L7.00000011,5.49999989" id="Oval-36"></path>
                            <path d="M7.49999988,8.50000023 C5.56090768,10.1270918 2.68084551,9.88715656 1.06720099,7.96408991 C0.0243021903,6.72121152 -0.234369105,5.07946543 0.236598791,3.63433028 L1.56283125,4.77123094" id="Oval-36-Copy"></path>
                        </g>
                    </g>
                </g>
            </g>
        </g>
    </g>
</svg>