
<svg viewBox="0 0 30 30" xmlns="http://www.w3.org/2000/svg" xmlns:xlink="http://www.w3.org/1999/xlink"><title>29F7BD75-198E-4882-BC7C-DDB181C08C50</title><defs><path d="M15 30c8.284 0 15-6.716 15-15 0-8.284-6.716-15-15-15C6.716 0 0 6.716 0 15c0 8.284 6.716 15 15 15z" id="a"/></defs><g fill="none" fill-rule="evenodd"><mask id="b" fill="#fff"><use xlink:href="#a"/></mask><use fill="#E6E6E6" xlink:href="#a"/><g mask="url(#b)" stroke-linecap="round" stroke="#FFF" stroke-linejoin="round"><path d="M15.386 16.286c2.59 0 4.687-2.11 4.687-4.715 0-2.602-2.098-4.713-4.687-4.713-2.588 0-4.687 2.11-4.687 4.714 0 2.605 2.098 4.716 4.686 4.716z"/><path d="M15.085 16.286c-3.89 0-6.942 3.07-6.942 6.857h13.634c0-2.164-.996-4.094-2.553-5.35"/></g></g></svg>