<svg viewBox="0 0 150 140" xmlns="http://www.w3.org/2000/svg" xmlns:xlink="http://www.w3.org/1999/xlink"><title>EDC3BD6B-D732-4A01-B72F-ADBB06B120D5</title><defs><path d="M0 1.994C0 .894.904 0 1.997 0h108.31c1.103 0 1.997.886 1.997 1.994v16.042c0 1.1-.904 1.993-1.997 1.993H1.997C.894 20.03 0 19.142 0 18.035V1.994z" id="a"/><mask id="d" x="0" y="0" width="112.304" height="20.029" fill="#fff"><use xlink:href="#a"/></mask><path id="e" d="M.404.302h19.04V77.31H.405z"/><path id="b" d="M45.74.636h20.465v79.482H45.74z"/><mask id="g" x="0" y="0" width="20.465" height="79.482" fill="#fff"><use xlink:href="#b"/></mask><path d="M86.986 25.232H99.13v27.01c0 1.658-.832 1.946-1.855.648l-4.217-5.352-4.217 5.352c-1.023 1.3-1.854 1.006-1.854-.648v-27.01z" id="c"/><mask id="h" x="0" y="0" width="12.143" height="28.47" fill="#fff"><use xlink:href="#c"/></mask></defs><g fill="none" fill-rule="evenodd"><path d="M75.5 136c30.376 0 55-1.007 55-2.25s-24.624-2.25-55-2.25-55 1.007-55 2.25 24.624 2.25 55 2.25z" fill="#EBEBEB"/><path d="M50.5 9.5V12m4.596-.596l-1.768 1.768M57 16h-2.5m.596 4.596l-1.768-1.768M50.5 22.5V20m-4.596.596l1.768-1.768M44 16h2.5m-.596-4.596l1.768 1.768" stroke="#CACACA" stroke-width="1.5" stroke-linecap="round"/><circle stroke="#CACACA" stroke-width="1.5" stroke-linecap="round" cx="20" cy="19" r="3"/><g stroke="#CACACA" stroke-width="1.5" stroke-linecap="round"><path d="M36.25 2.75v4.5M38.5 5H34"/></g><g transform="translate(19 27)"><g transform="translate(0 24.717)"><g transform="translate(.005 .632)" stroke-linecap="round" stroke="#CACACA" fill="#FFF"><rect stroke-width="1.5" x="7.76" y="11.922" width="97.233" height="67.044" rx="2"/><use mask="url(#d)" stroke-width="3" xlink:href="#a"/></g><g transform="translate(46.05 1.57)"><mask id="f" fill="#fff"><use xlink:href="#e"/></mask><use fill="#FFF" xlink:href="#e"/><path d="M-43.21-7.795h8.175v91.567h-8.175V-7.795zm16.35 0h8.175v91.567h-8.175V-7.795zm16.35 0h8.175v91.567h-8.175V-7.795zm16.35 0h8.175v91.567H5.84V-7.795zm16.35 0h8.175v91.567H22.19V-7.795zm16.35 0h8.175v91.567H38.54V-7.795z" fill="#EBEBEB" mask="url(#f)" transform="rotate(30 1.753 37.99)"/></g><use stroke="#CACACA" mask="url(#g)" stroke-width="3" stroke-linecap="round" xlink:href="#b"/></g><use stroke="#CACACA" mask="url(#h)" stroke-width="3" stroke-linecap="round" stroke-linejoin="round" fill="#FFF" xlink:href="#c"/><g transform="translate(27)" stroke="#CACACA" stroke-width="1.5" fill="#FFF" stroke-linecap="round"><path d="M25.914 24.313s19.168 3.394 25.347-.174c6.18-3.568 8.385-11.316 4.927-17.305C52.73.845 44.917-1.12 38.737 2.45 32.56 6.015 25.914 24.312 25.914 24.312zm7.24-4.04s11.442 1.266 15.17-.887c3.73-2.153 5.124-6.722 3.113-10.204-2.01-3.483-6.663-4.56-10.393-2.407-3.73 2.153-7.89 13.498-7.89 13.498z"/><path d="M32.97 24.282S13.577 27.55 7.29 23.92C1 20.29-1.29 12.49 2.17 6.5 5.627.506 13.527-1.408 19.814 2.222c6.287 3.63 13.156 22.06 13.156 22.06zm-7.73-4.177s-11.276 1.362-14.93-.748c-3.654-2.11-4.987-6.643-2.976-10.125 2.01-3.483 6.603-4.596 10.257-2.486 3.655 2.11 7.65 13.36 7.65 13.36z"/><rect stroke-linejoin="round" x="24.42" y="14.398" width="9.79" height="11.404" rx="3"/></g></g><path opacity=".32" d="M0 0h150v140H0z"/></g></svg>