<svg viewBox="0 0 150 140" xmlns="http://www.w3.org/2000/svg" xmlns:xlink="http://www.w3.org/1999/xlink"><title>C89F0C2D-4C05-44B8-BC1F-888857F5BE97</title><defs><path id="a" d="M5.83 14.3L.342.174 14.33 5.8z"/><mask id="c" x="0" y="0" width="13.986" height="14.127" fill="#fff"><use xlink:href="#a"/></mask><path id="d" d="M.54 8.676L8.83.383 44.074 35.64l-8.29 8.292z"/><path id="b" d="M5.043 13.18l8.29-8.293 35.244 35.255-8.29 8.293z"/><mask id="f" x="0" y="0" width="43.534" height="43.549" fill="#fff"><use xlink:href="#b"/></mask></defs><g fill="none" fill-rule="evenodd"><ellipse fill="#EBEBEB" cx="75.147" cy="135.533" rx="57.419" ry="2.533"/><path d="M51 10v2.5m4.596-.596l-1.768 1.768M57.5 16.5H55m.596 4.596l-1.768-1.768M51 23v-2.5m-4.596.596l1.768-1.768M44.5 16.5H47m-.596-4.596l1.768 1.768" stroke="#CACACA" stroke-width="1.5" stroke-linecap="round"/><circle stroke="#CACACA" stroke-width="1.5" stroke-linecap="round" cx="20.5" cy="19.5" r="3"/><g stroke="#CACACA" stroke-width="1.5" stroke-linecap="round"><path d="M36.75 3.25v4.5M39 5.5h-4.5"/></g><g stroke="#CACACA" stroke-width="1.5" fill="#FFF" stroke-linecap="round" stroke-linejoin="round"><path d="M122.87 119.45H53.604c-.08 0-.155.035-.205.098-.05.062-.07.143-.052.22 0 .046 1.483 5.005-1.822 8.31-4.077 4.077-9.88 4.313-9.503 4.32h67.7c3.493.05 6.875-1.22 9.472-3.554 2.542-2.35 3.972-5.665 3.937-9.126.002-.07-.025-.14-.074-.19-.05-.05-.117-.08-.188-.08z"/><path d="M19.21 37.176c-.204.025-.357.2-.357.406 0 .206.153.38.358.405 7.555 0 11.07 6.756 11.07 11.3v70.52c0 6.556 5.362 12.238 11.92 12.327 6.774.09 12.315-4.71 12.302-11.466.01-.82.68-1.48 1.502-1.476h56.242V49.287c-.018-6.684-5.434-12.097-12.118-12.11H19.21z"/><path d="M18.857 37.176c-5.33 0-9.878 3.855-10.75 9.113-.015.088.01.178.067.247.058.07.143.11.233.11h20.9c.09 0 .363 0 .35-.058-.01-.102-.028-.202-.05-.3-.873-5.26-5.42-9.114-10.75-9.114z"/></g><path fill="#EBEBEB" d="M42 50h61.435v6H42M42 67.333h61.435v6H42M42 84.667h61.435v6H42M42 102h61.435v6H42"/><g transform="translate(92.17 73.7)"><use stroke="#C9C9C9" mask="url(#c)" stroke-width="3" stroke-linecap="round" stroke-linejoin="round" fill="#FFF" xlink:href="#a"/><path fill="#EBEBEB" d="M1.765 4.106l2.502-2.502L.343.174"/><g transform="translate(4.503 4.503)"><mask id="e" fill="#fff"><use xlink:href="#d"/></mask><use fill="#FFF" xlink:href="#d"/><path stroke="#CACACA" stroke-width="1.5" stroke-linecap="round" stroke-linejoin="round" fill="#FFF" mask="url(#e)" d="M.54 8.672L4.57 4.644l35.25 35.26-4.028 4.03z"/></g><use stroke="#C9C9C9" mask="url(#f)" stroke-width="3" xlink:href="#b"/><path d="M49.026 40.535c2.312 2.312 2.312 6.062 0 8.375-2.312 2.313-6.06 2.313-8.373 0-2.312-2.313-2.312-6.063 0-8.375 2.312-2.313 6.06-2.313 8.373 0z" stroke="#CACACA" stroke-width="1.5" stroke-linecap="round" stroke-linejoin="round" fill="#FFF"/><path d="M43.193 43.076c-.91.91-.912 2.387-.002 3.3.912.91 2.388.91 3.298 0 .91-.912.91-2.39 0-3.3-.91-.91-2.385-.91-3.295 0z" fill="#EBEBEB"/></g><path opacity=".32" d="M0 0h150v140H0z"/></g></svg>