<svg viewBox="0 0 151 140" xmlns="http://www.w3.org/2000/svg" xmlns:xlink="http://www.w3.org/1999/xlink"><title>642CC0C1-9A05-468A-A097-57F3D5908869</title><defs><path d="M9.406 16.02c0-1.102.892-1.995 1.995-1.995h79.2c1.1 0 1.994.892 1.994 1.995v81.193H9.406V16.02z" id="a"/><mask id="b" x="0" y="0" width="83.188" height="83.188" fill="#fff"><use xlink:href="#a"/></mask></defs><g transform="translate(-177 -6557)" fill="none" fill-rule="evenodd"><path d="M253.25 6694c30.238 0 54.75-1.007 54.75-2.25s-24.512-2.25-54.75-2.25-54.75 1.007-54.75 2.25 24.512 2.25 54.75 2.25z" fill="#EBEBEB"/><g transform="translate(202 6587.5)"><path d="M56.9 3.008c-.533-.423-2.846-2.76-5.906-2.76-3.06 0-5.75 2.44-6.213 2.795-1.262.973-43.73 34.494-43.73 34.494-.517.405-.818 1.025-.818 1.68v60.314c0 1.182.957 2.14 2.138 2.14h97.248c1.18 0 2.14-.958 2.14-2.14V39.225c0-.658-.3-1.28-.82-1.687L56.9 3.007z" stroke="#CACACA" stroke-width="1.5" stroke-linecap="round" stroke-linejoin="round" fill="#FFF"/><use stroke="#CACACA" mask="url(#b)" stroke-width="3" stroke-linecap="round" stroke-linejoin="round" fill="#FFF" xlink:href="#a"/><path d="M9.406 43.27l37.462 24.24-3.217 1.925-34.244-22.26M92.594 43.27L55.132 67.51l3.217 1.925 34.244-22.26"/><path fill="#EBEBEB" d="M18.132 24.286h64.862v6H18.132M18.132 40.343h64.862v6H18.132M18.132 56.4h64.862v6H18.132"/><path d="M101.757 41.084l-43.223 28.09 41.194 32.496c.718-.038 1.37-.432 1.74-1.05.468-.81.254-2.155.254-3.477V41.1l.035-.016zM.232 41.05l43.234 28.125L2.318 101.67c-.718-.038-1.37-.432-1.738-1.05-.47-.81-.32-2.515-.32-3.86C.22 91.99.233 41.05.233 41.05z" stroke="#CACACA" stroke-width="1.5" stroke-linecap="round" stroke-linejoin="round" fill="#FFF"/><path d="M2.457 101.67l39.85-31.91s2.834-3.205 9.104-3.205c3.925 0 7.414 2.625 7.414 2.625l40.91 32.495H2.457v-.005z" stroke="#CACACA" stroke-width="1.5" stroke-linecap="round" stroke-linejoin="round" fill="#FFF"/></g><path d="M228 6566.5v2.5m4.596-.596l-1.768 1.768M234.5 6573H232m.596 4.596l-1.768-1.768M228 6579.5v-2.5m-4.596.596l1.768-1.768M221.5 6573h2.5m-.596-4.596l1.768 1.768" stroke="#CACACA" stroke-width="1.5" stroke-linecap="round"/><circle stroke="#CACACA" stroke-width="1.5" stroke-linecap="round" cx="197.5" cy="6576" r="3"/><g stroke="#CACACA" stroke-width="1.5" stroke-linecap="round"><path d="M213.75 6559.75v4.5M216 6562h-4.5"/></g><path opacity=".32" d="M178 6557h150v140H178z"/></g></svg>