<?xml version="1.0" encoding="UTF-8" standalone="no"?>
<svg width="30px" height="30px" viewBox="0 0 30 30" version="1.1" xmlns="http://www.w3.org/2000/svg" xmlns:xlink="http://www.w3.org/1999/xlink">
    <!-- Generator: sketchtool 39.1 (31720) - http://www.bohemiancoding.com/sketch -->
    <title>E07B0F39-AF9A-4DF4-98F5-9FA3FB560E60</title>
    <desc>Created with sketchtool.</desc>
    <defs></defs>
    <g id="-" stroke="none" stroke-width="1" fill="none" fill-rule="evenodd">
        <g id="规范" transform="translate(-332.000000, -1660.000000)" fill="#CCCCCC">
            <g id="清除" transform="translate(332.000000, 1660.000000)">
                <path d="M14.363961,15.0710678 L11.5423571,17.8926717 C11.3429553,18.0920735 11.3402718,18.4113396 11.5355339,18.6066017 C11.7250855,18.7961533 12.0504334,18.798809 12.2494639,18.5997785 L15.0710678,15.7781746 L17.8926717,18.5997785 C18.0920735,18.7991803 18.4113396,18.8018639 18.6066017,18.6066017 C18.7961533,18.4170501 18.798809,18.0917022 18.5997785,17.8926717 L15.7781746,15.0710678 L18.5997785,12.2494639 C18.7991803,12.0500621 18.8018639,11.7307961 18.6066017,11.5355339 C18.4170501,11.3459823 18.0917022,11.3433266 17.8926717,11.5423571 L15.0710678,14.363961 L12.2494639,11.5423571 C12.0500621,11.3429553 11.7307961,11.3402718 11.5355339,11.5355339 C11.3459823,11.7250855 11.3433266,12.0504334 11.5423571,12.2494639 L14.363961,15.0710678 Z M15,23 C19.418278,23 23,19.418278 23,15 C23,10.581722 19.418278,7 15,7 C10.581722,7 7,10.581722 7,15 C7,19.418278 10.581722,23 15,23 Z" id="Combined-Shape"></path>
            </g>
        </g>
    </g>
</svg>