<?xml version="1.0" encoding="UTF-8" standalone="no"?>
<svg width="36px" height="36px" viewBox="0 0 36 36" version="1.1" xmlns="http://www.w3.org/2000/svg" xmlns:xlink="http://www.w3.org/1999/xlink">
    <!-- Generator: sketchtool 39.1 (31720) - http://www.bohemiancoding.com/sketch -->
    <title>8BFA891A-9498-47AC-982F-1344DA0EB22A</title>
    <desc>Created with sketchtool.</desc>
    <defs></defs>
    <g id="-" stroke="none" stroke-width="1" fill="none" fill-rule="evenodd" opacity="0.5">
        <g id="规范" transform="translate(-147.000000, -1890.000000)" stroke="#05D380">
            <g id="定位--p" transform="translate(147.000000, 1890.000000)">
                <g id="定位-copy-2" transform="translate(10.000000, 9.000000)">
                    <path d="M11.2829442,7.72839506 C11.2829442,5.92153755 9.78052025,4.45679012 7.92718639,4.45679012 C6.07385252,4.45679012 4.57142857,5.92153755 4.57142857,7.72839506 C4.57142857,9.53525258 6.07385252,11 7.92718639,11 C8.51493801,11 9.06739766,10.8526863 9.54783796,10.5938653" id="Oval-598-Copy" stroke-linecap="round" stroke-linejoin="round"></path>
                    <path d="M6.56976032,18.001425 C7.35965988,18.7735796 8.65467358,18.7747062 9.43023968,18.001425 C9.43023968,18.001425 16,12.0487608 16,7.7619527 C16,3.47514459 12.418278,0 8,0 C3.581722,0 0,3.47514459 0,7.7619527 C0,12.0487608 6.56976032,18.001425 6.56976032,18.001425 Z" id="Oval-34"></path>
                </g>
            </g>
        </g>
    </g>
</svg>