<?xml version="1.0" encoding="UTF-8" standalone="no"?>
<svg width="36px" height="36px" viewBox="0 0 36 36" version="1.1" xmlns="http://www.w3.org/2000/svg" xmlns:xlink="http://www.w3.org/1999/xlink">
    <!-- Generator: sketchtool 39.1 (31720) - http://www.bohemiancoding.com/sketch -->
    <title>F4AB25B7-751A-4911-B3A8-8A56902DA284</title>
    <desc>Created with sketchtool.</desc>
    <defs></defs>
    <g id="-" stroke="none" stroke-width="1" fill="none" fill-rule="evenodd" stroke-linecap="round" stroke-linejoin="round">
        <g id="规范" transform="translate(-191.000000, -1595.000000)" stroke="#333333">
            <g id="设置" transform="translate(191.000000, 1595.000000)">
                <g id="设置-copy" transform="translate(9.000000, 8.000000)">
                    <path d="M5.67102035,3.1793507 C6.30472916,2.79463343 7.00089688,2.50253299 7.74074074,2.32183217 L7.74074074,1.75341797 C7.74074074,0.785031965 8.52161404,0 9.5,0 C10.4716121,0 11.2592593,0.792216584 11.2592593,1.75341797 L11.2592593,2.32183217 C11.9247286,2.48436762 12.5548617,2.73703104 13.1359899,3.06615383 L13.5768819,2.62526187 C14.2616342,1.94050956 15.3688964,1.93756894 16.0607198,2.62939229 C16.7477533,3.31642576 16.7445222,4.43355816 16.0648502,5.11323018 L15.6996416,5.47843878 C16.1444118,6.16269282 16.4789738,6.92518011 16.6781678,7.74074074 L17.246582,7.74074074 C18.214968,7.74074074 19,8.52161404 19,9.5 C19,10.4716121 18.2077834,11.2592593 17.246582,11.2592593 L16.6781678,11.2592593 C16.497467,11.9991031 16.2053666,12.6952708 15.8206493,13.3289796 L16.0685515,13.5768819 C16.7533039,14.2616342 16.7562445,15.3688964 16.0644211,16.0607198 C15.3773877,16.7477533 14.2602553,16.7445222 13.5805832,16.0648502 L13.3335845,15.8178515 C12.6986439,16.2039505 12.0008956,16.4970292 11.2592593,16.6781678 L11.2592593,17.246582 C11.2592593,18.214968 10.478386,19 9.5,19 C8.52838794,19 7.74074074,18.2077834 7.74074074,17.246582 L7.74074074,16.6781678 C6.92518011,16.4789738 6.16269282,16.1444118 5.47843878,15.6996416 L5.10952882,16.0685515 C4.42477651,16.7533039 3.31751428,16.7562445 2.62569093,16.0644211 C1.93865746,15.3773877 1.9418885,14.2602553 2.62156052,13.5805832 L3.06615383,13.1359899 C2.73703104,12.5548617 2.48436762,11.9247286 2.32183217,11.2592593 L1.75341797,11.2592593 C0.785031965,11.2592593 1.3500312e-13,10.478386 1.3500312e-13,9.5 C1.3500312e-13,8.52838794 0.792216584,7.74074074 1.75341797,7.74074074 L2.32183217,7.74074074 C2.50297079,6.99910443 2.79604946,6.30135613 3.18214855,5.6664155 L2.62526187,5.10952882 C1.94050956,4.42477651 1.93756894,3.31751428 2.62939229,2.62569093 C3.31642576,1.93865746 4.43355816,1.9418885 5.11323018,2.62156052 L5.67102035,3.1793507 Z" id="Oval-597"></path>
                    <path d="M12.6666667,9.5 C12.6666667,7.75109829 11.2489017,6.33333333 9.5,6.33333333 C7.75109829,6.33333333 6.33333333,7.75109829 6.33333333,9.5 C6.33333333,11.2489017 7.75109829,12.6666667 9.5,12.6666667 C10.0546328,12.6666667 10.5759623,12.5240781 11.0293307,12.2735589" id="Oval-598"></path>
                </g>
            </g>
        </g>
    </g>
</svg>